<?xml version="1.0" encoding="UTF-8" standalone="no"?>
<!-- Created with Inkscape (http://www.inkscape.org/) -->

<svg
   xmlns:dc="http://purl.org/dc/elements/1.1/"
   xmlns:cc="http://creativecommons.org/ns#"
   xmlns:rdf="http://www.w3.org/1999/02/22-rdf-syntax-ns#"
   xmlns:svg="http://www.w3.org/2000/svg"
   xmlns="http://www.w3.org/2000/svg"
   xmlns:xlink="http://www.w3.org/1999/xlink"
   xmlns:sodipodi="http://sodipodi.sourceforge.net/DTD/sodipodi-0.dtd"
   xmlns:inkscape="http://www.inkscape.org/namespaces/inkscape"
   width="48px"
   height="48px"
   id="svg2985"
   version="1.1"
   inkscape:version="0.48.1 r9760"
   sodipodi:docname="ic_lok_gimp.svg"
   inkscape:export-filename="/home/chris/dev/btcontroll/android/res/drawable-hdpi/ic_lok.png"
   inkscape:export-xdpi="90"
   inkscape:export-ydpi="90">
  <sodipodi:namedview
     id="base"
     pagecolor="#ffffff"
     bordercolor="#666666"
     borderopacity="1.0"
     inkscape:pageopacity="0.0"
     inkscape:pageshadow="2"
     inkscape:zoom="7"
     inkscape:cx="-10.373391"
     inkscape:cy="42.364872"
     inkscape:current-layer="layer3"
     showgrid="false"
     inkscape:grid-bbox="true"
     inkscape:document-units="px"
     inkscape:window-width="1127"
     inkscape:window-height="863"
     inkscape:window-x="0"
     inkscape:window-y="0"
     inkscape:window-maximized="0"
     inkscape:snap-global="false">
    <inkscape:grid
       type="xygrid"
       id="grid3046" />
  </sodipodi:namedview>
  <defs
     id="defs2987">
    <linearGradient
       id="linearGradient3895">
      <stop
         style="stop-color:#a3a3a3;stop-opacity:1;"
         offset="0"
         id="stop3897" />
      <stop
         style="stop-color:#787878;stop-opacity:1;"
         offset="1"
         id="stop3899" />
    </linearGradient>
    <linearGradient
       id="linearGradient3859">
      <stop
         id="stop3861"
         offset="0"
         style="stop-color:#a3a3a3;stop-opacity:1;" />
      <stop
         id="stop3863"
         offset="1"
         style="stop-color:#787878;stop-opacity:1;" />
    </linearGradient>
    <linearGradient
       inkscape:collect="always"
       id="linearGradient3838">
      <stop
         style="stop-color:#000000;stop-opacity:1;"
         offset="0"
         id="stop3840" />
      <stop
         style="stop-color:#000000;stop-opacity:0;"
         offset="1"
         id="stop3842" />
    </linearGradient>
    <linearGradient
       inkscape:collect="always"
       id="linearGradient3830">
      <stop
         style="stop-color:#000000;stop-opacity:1;"
         offset="0"
         id="stop3832" />
      <stop
         style="stop-color:#000000;stop-opacity:0;"
         offset="1"
         id="stop3834" />
    </linearGradient>
    <linearGradient
       inkscape:collect="always"
       id="linearGradient3822">
      <stop
         style="stop-color:#960000;stop-opacity:1;"
         offset="0"
         id="stop3824" />
      <stop
         style="stop-color:#960000;stop-opacity:0;"
         offset="1"
         id="stop3826" />
    </linearGradient>
    <linearGradient
       id="linearGradient3814">
      <stop
         style="stop-color:#a3a3a3;stop-opacity:1;"
         offset="0"
         id="stop3816" />
      <stop
         style="stop-color:#787878;stop-opacity:1;"
         offset="1"
         id="stop3818" />
    </linearGradient>
    <linearGradient
       inkscape:collect="always"
       xlink:href="#linearGradient3822"
       id="linearGradient3828"
       x1="6.7960928"
       y1="21.1997"
       x2="42.909051"
       y2="21.1997"
       gradientUnits="userSpaceOnUse" />
    <linearGradient
       inkscape:collect="always"
       xlink:href="#linearGradient3830"
       id="linearGradient3836"
       x1="12.025892"
       y1="32.544666"
       x2="20.29899"
       y2="32.544666"
       gradientUnits="userSpaceOnUse" />
    <linearGradient
       inkscape:collect="always"
       xlink:href="#linearGradient3838"
       id="linearGradient3844"
       x1="12.025892"
       y1="32.544666"
       x2="20.29899"
       y2="32.544666"
       gradientUnits="userSpaceOnUse" />
    <linearGradient
       inkscape:collect="always"
       xlink:href="#linearGradient3859-2"
       id="linearGradient3857-3"
       x1="6.8035197"
       y1="23.279781"
       x2="42.911327"
       y2="23.279781"
       gradientUnits="userSpaceOnUse" />
    <linearGradient
       id="linearGradient3859-2">
      <stop
         id="stop3861-7"
         offset="0"
         style="stop-color:#a3a3a3;stop-opacity:1;" />
      <stop
         id="stop3863-2"
         offset="1"
         style="stop-color:#787878;stop-opacity:1;" />
    </linearGradient>
    <linearGradient
       inkscape:collect="always"
       xlink:href="#linearGradient3814-8"
       id="linearGradient3820-2"
       x1="6.796093"
       y1="21.199699"
       x2="42.90905"
       y2="21.199699"
       gradientUnits="userSpaceOnUse" />
    <linearGradient
       id="linearGradient3814-8">
      <stop
         style="stop-color:#a3a3a3;stop-opacity:1;"
         offset="0"
         id="stop3816-2" />
      <stop
         style="stop-color:#787878;stop-opacity:1;"
         offset="1"
         id="stop3818-6" />
    </linearGradient>
    <filter
       inkscape:collect="always"
       id="filter3988"
       x="-0.10443958"
       width="1.2088792"
       y="-0.14100887"
       height="1.2820177">
      <feGaussianBlur
         inkscape:collect="always"
         stdDeviation="1.5277686"
         id="feGaussianBlur3990" />
    </filter>
    <linearGradient
       inkscape:collect="always"
       xlink:href="#linearGradient3859-8"
       id="linearGradient3857-4"
       x1="6.8035197"
       y1="23.279781"
       x2="42.911327"
       y2="23.279781"
       gradientUnits="userSpaceOnUse" />
    <linearGradient
       id="linearGradient3859-8">
      <stop
         id="stop3861-1"
         offset="0"
         style="stop-color:#a3a3a3;stop-opacity:1;" />
      <stop
         id="stop3863-6"
         offset="1"
         style="stop-color:#787878;stop-opacity:1;" />
    </linearGradient>
    <linearGradient
       inkscape:collect="always"
       xlink:href="#linearGradient3814-0"
       id="linearGradient3820-5"
       x1="6.796093"
       y1="21.199699"
       x2="42.90905"
       y2="21.199699"
       gradientUnits="userSpaceOnUse" />
    <linearGradient
       id="linearGradient3814-0">
      <stop
         style="stop-color:#a3a3a3;stop-opacity:1;"
         offset="0"
         id="stop3816-1" />
      <stop
         style="stop-color:#787878;stop-opacity:1;"
         offset="1"
         id="stop3818-5" />
    </linearGradient>
    <filter
       inkscape:collect="always"
       id="filter4132">
      <feGaussianBlur
         inkscape:collect="always"
         stdDeviation="0.30555372"
         id="feGaussianBlur4134" />
    </filter>
    <linearGradient
       inkscape:collect="always"
       xlink:href="#linearGradient3814-8"
       id="linearGradient3907"
       x1="34.857143"
       y1="10.999999"
       x2="34.571426"
       y2="35.857143"
       gradientUnits="userSpaceOnUse"
       gradientTransform="matrix(1.2424505,0,0,1.2424505,-6.4140778,-4.9278373)" />
  </defs>
  <metadata
     id="metadata2990">
    <rdf:RDF>
      <cc:Work
         rdf:about="">
        <dc:format>image/svg+xml</dc:format>
        <dc:type
           rdf:resource="http://purl.org/dc/dcmitype/StillImage" />
        <dc:title></dc:title>
      </cc:Work>
    </rdf:RDF>
  </metadata>
  <g
     inkscape:groupmode="layer"
     id="layer2"
     inkscape:label="glow"
     style="display:inline">
    <path
       inkscape:connector-curvature="0"
       style="fill:none;stroke:#ffffff;stroke-width:1.60972208;stroke-linecap:butt;stroke-linejoin:miter;stroke-miterlimit:4;stroke-opacity:1;stroke-dasharray:none;filter:url(#filter3988)"
       d="m 29.156251,10.28125 c -0.0025,3.12904 0.03072,7.868203 0.0625,9.84375 -1.431618,-0.10323 -3.693642,-0.12808 -5.53125,-0.03125 0.02215,-1.995819 0.06149,-4.77439 -1.84375,-4.8125 -2.196582,0.08266 -2.108922,2.924915 -1.96875,4.96875 -1.774271,0.02502 -4.996596,0.03762 -7.1875,0.0625 0.150294,-2.162785 0.183175,-5.046004 0.46875,-7.3125 l -3.15625,0 c 0.18788,2.900575 0.146064,5.024633 0.21875,7.25 -1.9488832,-0.0862 -0.991587,0.02585 -2.8125003,0 -0.2282745,2.816484 0.00513,9.253328 -0.0625,11.875 1.533876,5.5e-4 3.5166053,-0.02647 5.2187503,-0.03125 -0.01825,0.14767 -0.03125,0.284891 -0.03125,0.4375 0,2.008411 1.616589,3.65625 3.625,3.65625 2.008411,0 3.65625,-1.647839 3.65625,-3.65625 0,-0.16379 -0.04152,-0.310695 -0.0625,-0.46875 2.243174,-0.01036 4.132757,0.0099 6.375,0 -0.03079,0.190419 -0.0625,0.39464 -0.0625,0.59375 0,2.008411 1.616589,3.625 3.625,3.625 2.008411,0 3.65625,-1.616589 3.65625,-3.625 0,-0.208566 -0.02878,-0.426033 -0.0625,-0.625 2.154564,-0.0045 4.635693,-0.0056 6.5,0 -0.01421,-4.321154 0.01973,-15.23962 0.03125,-19.0625 1.461987,0 0.836177,-0.03125 2.53125,-0.03125 0.02947,-1.259132 0.11619,-2.475558 0.03125,-2.65625 -3.407599,0.125633 -9.069344,-0.02538 -13.21875,0 z"
       id="path2995-2"
       transform="matrix(1.2424505,0,0,1.2424505,-6.4140778,-4.9278373)" />
  </g>
  <g
     inkscape:groupmode="layer"
     id="layer3"
     inkscape:label="sunken"
     style="display:inline">
    <path
       inkscape:connector-curvature="0"
       style="fill:none;stroke:#000000;stroke-width:0.96583325;stroke-linecap:butt;stroke-linejoin:round;stroke-miterlimit:4;stroke-opacity:1;stroke-dasharray:none;filter:url(#filter4132)"
       d="m 29.156251,10.28125 c -0.0025,3.12904 0.03072,7.868203 0.0625,9.84375 -1.431618,-0.10323 -3.693642,-0.12808 -5.53125,-0.03125 0.02215,-1.995819 0.06149,-4.77439 -1.84375,-4.8125 -2.196582,0.08266 -2.108922,2.924915 -1.96875,4.96875 -1.774271,0.02502 -4.996596,0.03762 -7.1875,0.0625 0.150294,-2.162785 0.183175,-5.046004 0.46875,-7.3125 l -3.15625,0 c 0.18788,2.900575 0.146064,5.024633 0.21875,7.25 -1.9488832,-0.0862 -0.991587,0.02585 -2.8125003,0 -0.2282745,2.816484 0.00513,9.253328 -0.0625,11.875 1.533876,5.5e-4 3.5166053,-0.02647 5.2187503,-0.03125 -0.01825,0.14767 -0.03125,0.284891 -0.03125,0.4375 0,2.008411 1.616589,3.65625 3.625,3.65625 2.008411,0 3.65625,-1.647839 3.65625,-3.65625 0,-0.16379 -0.04152,-0.310695 -0.0625,-0.46875 2.243174,-0.01036 4.132757,0.0099 6.375,0 -0.03079,0.190419 -0.0625,0.39464 -0.0625,0.59375 0,2.008411 1.616589,3.625 3.625,3.625 2.008411,0 3.65625,-1.616589 3.65625,-3.625 0,-0.208566 -0.02878,-0.426033 -0.0625,-0.625 2.154564,-0.0045 4.635693,-0.0056 6.5,0 -0.01421,-4.321154 0.01973,-15.23962 0.03125,-19.0625 1.461987,0 0.836177,-0.03125 2.53125,-0.03125 0.02947,-1.259132 0.11619,-2.475558 0.03125,-2.65625 -3.407599,0.125633 -9.069344,-0.02538 -13.21875,0 z"
       id="path2995-8"
       transform="matrix(1.2424505,0,0,1.2424505,-6.4140778,-4.9278373)" />
  </g>
  <g
     id="layer1"
     inkscape:label="Layer 1"
     inkscape:groupmode="layer"
     style="display:inline">
    <path
       style="fill:url(#linearGradient3907);fill-opacity:1;fill-rule:nonzero;stroke:none"
       d="m 29.81112,7.8461068 c -0.0031,3.8876772 0.03817,9.7758522 0.07765,12.2303722 -1.778715,-0.128258 -4.589168,-0.159133 -6.872304,-0.03883 0.02752,-2.479707 0.07639,-5.931944 -2.290769,-5.979293 -2.729144,0.1027 -2.620231,3.634062 -2.446074,6.173426 -2.204444,0.03109 -6.208023,0.04674 -8.9301127,0.07765 0.186733,-2.687153 0.227586,-6.26941 0.582399,-9.085419 l -3.9214848,0 c 0.2334316,3.603821 0.1814772,6.242858 0.271786,9.007767 -2.4213906,-0.1071 -1.2319974,0.03212 -3.494392,0 -0.2836199,3.499341 0.00637,11.496801 -0.077653,14.754099 1.905765,6.83e-4 4.3692077,-0.03289 6.4840385,-0.03883 -0.022675,0.183473 -0.038827,0.353963 -0.038827,0.543573 0,2.495351 2.008532,4.542709 4.503883,4.542709 2.495351,0 4.54271,-2.047358 4.54271,-4.542709 0,-0.203502 -0.05159,-0.386023 -0.07765,-0.5824 2.787032,-0.01287 5.134746,0.0123 7.920622,0 -0.03825,0.236587 -0.07765,0.490321 -0.07765,0.737705 0,2.495352 2.008531,4.503884 4.503882,4.503884 2.495351,0 4.542711,-2.008532 4.542711,-4.503884 0,-0.259132 -0.03576,-0.529324 -0.07765,-0.776531 2.676939,-0.0056 5.759619,-0.007 8.075929,0 -0.01766,-5.36882 0.02451,-18.934474 0.03883,-23.684212 1.816446,0 1.038908,-0.03883 3.144953,-0.03883 0.03662,-1.5644092 0.14436,-3.0757583 0.03883,-3.3002592 -4.233774,0.1560928 -11.268211,-0.031533 -16.423643,0 z"
       id="path2995"
       inkscape:connector-curvature="0" />
    <rect
       style="fill:#ffffff;fill-opacity:1;fill-rule:evenodd;stroke:none"
       id="rect3018"
       width="6.0243092"
       height="8.2834263"
       x="33.245964"
       y="11.786579" />
  </g>
</svg>
