<?xml version="1.0" encoding="UTF-8" standalone="no"?>
<!-- Created with Inkscape (http://www.inkscape.org/) -->

<svg
   xmlns:dc="http://purl.org/dc/elements/1.1/"
   xmlns:cc="http://creativecommons.org/ns#"
   xmlns:rdf="http://www.w3.org/1999/02/22-rdf-syntax-ns#"
   xmlns:svg="http://www.w3.org/2000/svg"
   xmlns="http://www.w3.org/2000/svg"
   xmlns:xlink="http://www.w3.org/1999/xlink"
   xmlns:sodipodi="http://sodipodi.sourceforge.net/DTD/sodipodi-0.dtd"
   xmlns:inkscape="http://www.inkscape.org/namespaces/inkscape"
   width="48"
   height="48"
   id="svg3048"
   version="1.1"
   inkscape:version="0.48.1 r9760"
   style="display:inline"
   sodipodi:docname="Neues Dokument 3">
  <defs
     id="defs3050">
    <linearGradient
       id="linearGradient3902">
      <stop
         style="stop-color:#a3a3a4;stop-opacity:1;"
         offset="0"
         id="stop3904" />
      <stop
         style="stop-color:#787878;stop-opacity:1;"
         offset="1"
         id="stop3906" />
    </linearGradient>
    <linearGradient
       inkscape:collect="always"
       xlink:href="#linearGradient3902"
       id="linearGradient3908"
       x1="18"
       y1="9"
       x2="18"
       y2="36"
       gradientUnits="userSpaceOnUse"
       gradientTransform="matrix(1.4444444,0,0,1.4444444,-4,-7.5555556)" />
    <linearGradient
       inkscape:collect="always"
       xlink:href="#linearGradient3902-2"
       id="linearGradient3908-8"
       x1="18"
       y1="9"
       x2="18"
       y2="36"
       gradientUnits="userSpaceOnUse" />
    <linearGradient
       id="linearGradient3902-2">
      <stop
         style="stop-color:#a3a3a4;stop-opacity:1;"
         offset="0"
         id="stop3904-9" />
      <stop
         style="stop-color:#787878;stop-opacity:1;"
         offset="1"
         id="stop3906-6" />
    </linearGradient>
    <linearGradient
       y2="36"
       x2="18"
       y1="9"
       x1="18"
       gradientUnits="userSpaceOnUse"
       id="linearGradient3943"
       xlink:href="#linearGradient3902-2"
       inkscape:collect="always"
       gradientTransform="matrix(1.4444444,0,0,1.4444444,-4,-7.5555556)" />
    <linearGradient
       inkscape:collect="always"
       xlink:href="#linearGradient3902-8"
       id="linearGradient3908-6"
       x1="18"
       y1="9"
       x2="18"
       y2="36"
       gradientUnits="userSpaceOnUse" />
    <linearGradient
       id="linearGradient3902-8">
      <stop
         style="stop-color:#a3a3a4;stop-opacity:1;"
         offset="0"
         id="stop3904-0" />
      <stop
         style="stop-color:#787878;stop-opacity:1;"
         offset="1"
         id="stop3906-7" />
    </linearGradient>
    <linearGradient
       y2="36"
       x2="18"
       y1="9"
       x1="18"
       gradientUnits="userSpaceOnUse"
       id="linearGradient3943-8"
       xlink:href="#linearGradient3902-8"
       inkscape:collect="always" />
    <filter
       inkscape:collect="always"
       id="filter4524">
      <feGaussianBlur
         inkscape:collect="always"
         stdDeviation="0.22"
         id="feGaussianBlur4526" />
    </filter>
  </defs>
  <sodipodi:namedview
     id="base"
     pagecolor="#ffffff"
     bordercolor="#666666"
     borderopacity="1.0"
     inkscape:pageopacity="0.0"
     inkscape:pageshadow="2"
     inkscape:zoom="7"
     inkscape:cx="2.092509"
     inkscape:cy="31.246743"
     inkscape:current-layer="layer3"
     showgrid="true"
     inkscape:grid-bbox="true"
     inkscape:document-units="px"
     inkscape:snap-smooth-nodes="true"
     inkscape:snap-global="true"
     inkscape:snap-bbox="false"
     inkscape:window-width="1072"
     inkscape:window-height="871"
     inkscape:window-x="0"
     inkscape:window-y="151"
     inkscape:window-maximized="0">
    <inkscape:grid
       type="xygrid"
       id="grid3065" />
  </sodipodi:namedview>
  <metadata
     id="metadata3053">
    <rdf:RDF>
      <cc:Work
         rdf:about="">
        <dc:format>image/svg+xml</dc:format>
        <dc:type
           rdf:resource="http://purl.org/dc/dcmitype/StillImage" />
        <dc:title></dc:title>
      </cc:Work>
    </rdf:RDF>
  </metadata>
  <g
     inkscape:groupmode="layer"
     id="layer3"
     inkscape:label="glow"
     style="display:inline">
    <path
       style="fill:url(#linearGradient3943);fill-opacity:1;stroke:#ffffff;stroke-width:2;stroke-miterlimit:4;stroke-opacity:1;stroke-dasharray:none;display:inline"
       d="M 16.222222,34.333333 C 16.222222,28.555556 9,28.582766 9,18.444444 c 0,-17.3333329 24.555556,-17.3333329 24.555556,0 0,10.111112 -7.222223,10.111112 -7.222223,15.888889 0,4.333334 0,4.333334 0,8.666667 -2.888889,0 -2.888889,1.444444 -4.333333,1.444444 -1.444444,0 -1.133993,0 -1.444444,0 C 19.111111,44.444444 19.111111,43 16.222222,43 c 0,-5.777778 0,-4.333333 0,-8.666667 z"
       id="path3056-5"
       inkscape:connector-curvature="0"
       sodipodi:nodetypes="cssccsscc" />
  </g>
  <g
     inkscape:groupmode="layer"
     id="layer4"
     inkscape:label="sunken"
     style="display:inline">
    <path
       style="fill:url(#linearGradient3943-8);fill-opacity:1;stroke:#000000;stroke-width:0.83076924;stroke-linejoin:round;stroke-miterlimit:4;stroke-opacity:1;stroke-dasharray:none;display:inline;filter:url(#filter4524)"
       d="M 14,29 C 14,25 9,25.018838 9,18 9,6 26,6 26,18 c 0,7 -5,7 -5,11 0,3 0,3 0,6 -2,0 -2,1 -3,1 -1,0 -0.785072,0 -1,0 -1,0 -1,-1 -3,-1 0,-4 0,-3 0,-6 z"
       id="path3056-6"
       inkscape:connector-curvature="0"
       sodipodi:nodetypes="cssccsscc"
       transform="matrix(1.4444444,0,0,1.4444444,-4,-7.5555556)" />
  </g>
  <g
     id="layer1"
     inkscape:label="Layer 1"
     inkscape:groupmode="layer"
     style="display:inline">
    <path
       style="fill:url(#linearGradient3908);fill-opacity:1;stroke:none"
       d="M 16.222222,34.333333 C 16.222222,28.555556 9,28.582766 9,18.444444 c 0,-17.3333329 24.555556,-17.3333329 24.555556,0 0,10.111112 -7.222223,10.111112 -7.222223,15.888889 0,4.333334 0,4.333334 0,8.666667 -2.888889,0 -2.888889,1.444444 -4.333333,1.444444 -1.444444,0 -1.133993,0 -1.444444,0 C 19.111111,44.444444 19.111111,43 16.222222,43 c 0,-5.777778 0,-4.333333 0,-8.666667 z"
       id="path3056"
       inkscape:connector-curvature="0"
       sodipodi:nodetypes="cssccsscc" />
    <path
       style="fill:none;stroke:#ffffff;stroke-width:1.44444442px;stroke-linecap:butt;stroke-linejoin:miter;stroke-opacity:1"
       d="m 16.222222,34.333333 c 0.817926,0.342976 3.704473,1.287718 5.245276,1.262056 1.540805,-0.02566 3.955058,-0.713467 4.865835,-1.262056"
       id="path3067"
       inkscape:connector-curvature="0"
       sodipodi:nodetypes="czc" />
    <path
       style="fill:none;stroke:#ffffff;stroke-width:1.44444442px;stroke-linecap:butt;stroke-linejoin:miter;stroke-opacity:1"
       d="m 16.187264,38.487944 c 0.817925,0.342976 3.704473,1.287718 5.245276,1.262056 1.540805,-0.02567 3.955058,-0.713467 4.865835,-1.262056"
       id="path3067-4"
       inkscape:connector-curvature="0"
       sodipodi:nodetypes="czc" />
    <path
       style="fill:none;stroke:#ffffff;stroke-width:1.44444442px;stroke-linecap:butt;stroke-linejoin:miter;stroke-opacity:1"
       d="m 23.444444,31.444444 c 2e-6,-1.857155 1.420568,-9.313442 1.444445,-14.444444 -1.833834,0.03335 -4.333333,0 -7.222222,0 -0.285899,5.375987 1.17847,10.107185 1.444444,14.444444"
       inkscape:connector-curvature="0"
       sodipodi:nodetypes="cccc" />
  </g>
</svg>
