<?xml version="1.0" encoding="UTF-8" standalone="no"?>
<!-- Created with Inkscape (http://www.inkscape.org/) -->

<svg
   xmlns:dc="http://purl.org/dc/elements/1.1/"
   xmlns:cc="http://creativecommons.org/ns#"
   xmlns:rdf="http://www.w3.org/1999/02/22-rdf-syntax-ns#"
   xmlns:svg="http://www.w3.org/2000/svg"
   xmlns="http://www.w3.org/2000/svg"
   xmlns:xlink="http://www.w3.org/1999/xlink"
   xmlns:sodipodi="http://sodipodi.sourceforge.net/DTD/sodipodi-0.dtd"
   xmlns:inkscape="http://www.inkscape.org/namespaces/inkscape"
   width="48px"
   height="48px"
   id="svg4660"
   version="1.1"
   inkscape:version="0.48.2 r9819"
   sodipodi:docname="ic_rauchfang_on_inkscape.svg">
  <defs
     id="defs4662">
    <linearGradient
       id="linearGradient5221">
      <stop
         style="stop-color:#a3a3a3;stop-opacity:1;"
         offset="0"
         id="stop5223" />
      <stop
         style="stop-color:#787878;stop-opacity:1;"
         offset="1"
         id="stop5225" />
    </linearGradient>
    <linearGradient
       inkscape:collect="always"
       xlink:href="#linearGradient5221-8"
       id="linearGradient5227-9"
       x1="25"
       y1="1"
       x2="25"
       y2="46"
       gradientUnits="userSpaceOnUse" />
    <linearGradient
       id="linearGradient5221-8">
      <stop
         style="stop-color:#a3a3a3;stop-opacity:1;"
         offset="0"
         id="stop5223-4" />
      <stop
         style="stop-color:#787878;stop-opacity:1;"
         offset="1"
         id="stop5225-5" />
    </linearGradient>
    <linearGradient
       inkscape:collect="always"
       xlink:href="#linearGradient5221-0"
       id="linearGradient5227-92"
       x1="25"
       y1="1"
       x2="25"
       y2="46"
       gradientUnits="userSpaceOnUse" />
    <linearGradient
       id="linearGradient5221-0">
      <stop
         style="stop-color:#a3a3a3;stop-opacity:1;"
         offset="0"
         id="stop5223-1" />
      <stop
         style="stop-color:#787878;stop-opacity:1;"
         offset="1"
         id="stop5225-7" />
    </linearGradient>
    <linearGradient
       inkscape:collect="always"
       xlink:href="#linearGradient5221-2"
       id="linearGradient4735-5"
       x1="2"
       y1="25"
       x2="36"
       y2="25"
       gradientUnits="userSpaceOnUse" />
    <linearGradient
       id="linearGradient5221-2">
      <stop
         style="stop-color:#a3a3a3;stop-opacity:1;"
         offset="0"
         id="stop5223-0" />
      <stop
         style="stop-color:#787878;stop-opacity:1;"
         offset="1"
         id="stop5225-2" />
    </linearGradient>
    <linearGradient
       inkscape:collect="always"
       xlink:href="#linearGradient5221-6"
       id="linearGradient4735-4"
       x1="2"
       y1="25"
       x2="36"
       y2="25"
       gradientUnits="userSpaceOnUse" />
    <linearGradient
       id="linearGradient5221-6">
      <stop
         style="stop-color:#a3a3a3;stop-opacity:1;"
         offset="0"
         id="stop5223-8" />
      <stop
         style="stop-color:#787878;stop-opacity:1;"
         offset="1"
         id="stop5225-0" />
    </linearGradient>
    <linearGradient
       gradientTransform="matrix(0,-1,1,0,-15,42)"
       y2="24"
       x2="15"
       y1="30"
       x1="4"
       gradientUnits="userSpaceOnUse"
       id="linearGradient4833"
       xlink:href="#linearGradient5221-6"
       inkscape:collect="always" />
    <linearGradient
       gradientTransform="translate(0,-2)"
       y2="25"
       x2="36"
       y1="25"
       x1="2"
       gradientUnits="userSpaceOnUse"
       id="linearGradient4833-6"
       xlink:href="#linearGradient5221-6-5"
       inkscape:collect="always" />
    <linearGradient
       id="linearGradient5221-6-5">
      <stop
         style="stop-color:#a3a3a3;stop-opacity:1;"
         offset="0"
         id="stop5223-8-0" />
      <stop
         style="stop-color:#787878;stop-opacity:1;"
         offset="1"
         id="stop5225-0-4" />
    </linearGradient>
    <linearGradient
       y2="25"
       x2="36"
       y1="25"
       x1="2"
       gradientTransform="translate(0,-2)"
       gradientUnits="userSpaceOnUse"
       id="linearGradient4925"
       xlink:href="#linearGradient5221-6-5"
       inkscape:collect="always" />
    <filter
       inkscape:collect="always"
       id="filter4948">
      <feGaussianBlur
         inkscape:collect="always"
         stdDeviation="0.3046875"
         id="feGaussianBlur4950" />
    </filter>
    <linearGradient
       gradientTransform="translate(0,-2)"
       y2="25"
       x2="36"
       y1="25"
       x1="2"
       gradientUnits="userSpaceOnUse"
       id="linearGradient4833-5"
       xlink:href="#linearGradient5221-6-4"
       inkscape:collect="always" />
    <linearGradient
       id="linearGradient5221-6-4">
      <stop
         style="stop-color:#a3a3a3;stop-opacity:1;"
         offset="0"
         id="stop5223-8-2" />
      <stop
         style="stop-color:#787878;stop-opacity:1;"
         offset="1"
         id="stop5225-0-2" />
    </linearGradient>
    <linearGradient
       y2="25"
       x2="36"
       y1="25"
       x1="2"
       gradientTransform="translate(0,-2)"
       gradientUnits="userSpaceOnUse"
       id="linearGradient4967"
       xlink:href="#linearGradient5221-8"
       inkscape:collect="always" />
    <filter
       inkscape:collect="always"
       id="filter5022"
       x="-0.082162921"
       width="1.1643258"
       y="-0.22243346"
       height="1.4448669">
      <feGaussianBlur
         inkscape:collect="always"
         stdDeviation="1.5234375"
         id="feGaussianBlur5024" />
    </filter>
    <linearGradient
       inkscape:collect="always"
       xlink:href="#linearGradient5221-6"
       id="linearGradient5626"
       x1="23.368919"
       y1="16.692162"
       x2="34.585968"
       y2="16.692162"
       gradientUnits="userSpaceOnUse"
       gradientTransform="translate(-7,-1)" />
    <linearGradient
       inkscape:collect="always"
       xlink:href="#linearGradient5221-2"
       id="linearGradient5645"
       x1="23.017895"
       y1="24.230883"
       x2="31.940096"
       y2="24.230883"
       gradientUnits="userSpaceOnUse" />
    <linearGradient
       inkscape:collect="always"
       xlink:href="#linearGradient5221-6"
       id="linearGradient5648"
       gradientUnits="userSpaceOnUse"
       gradientTransform="translate(-3,-4)"
       x1="23.368919"
       y1="16.692162"
       x2="34.585968"
       y2="16.692162" />
    <linearGradient
       inkscape:collect="always"
       xlink:href="#linearGradient5221-2"
       id="linearGradient5650"
       gradientUnits="userSpaceOnUse"
       x1="23.017895"
       y1="24.230883"
       x2="31.940096"
       y2="24.230883"
       gradientTransform="translate(-12.736523,-5.430829)" />
    <linearGradient
       inkscape:collect="always"
       xlink:href="#linearGradient5221-2"
       id="linearGradient5660"
       x1="33.12133"
       y1="5.547905"
       x2="45.634987"
       y2="5.547905"
       gradientUnits="userSpaceOnUse" />
    <linearGradient
       inkscape:collect="always"
       xlink:href="#linearGradient5221-6"
       id="linearGradient5662"
       gradientUnits="userSpaceOnUse"
       gradientTransform="matrix(0,-1,1,0,-15,42)"
       x1="4"
       y1="30"
       x2="15"
       y2="24" />
    <linearGradient
       inkscape:collect="always"
       xlink:href="#linearGradient5221-6-8"
       id="linearGradient5662-1"
       gradientUnits="userSpaceOnUse"
       gradientTransform="matrix(0,-1,1,0,-15,42)"
       x1="4"
       y1="30"
       x2="15"
       y2="24" />
    <linearGradient
       id="linearGradient5221-6-8">
      <stop
         style="stop-color:#a3a3a3;stop-opacity:1;"
         offset="0"
         id="stop5223-8-7" />
      <stop
         style="stop-color:#787878;stop-opacity:1;"
         offset="1"
         id="stop5225-0-0" />
    </linearGradient>
    <linearGradient
       y2="24"
       x2="15"
       y1="30"
       x1="4"
       gradientTransform="matrix(0,-1,1,0,-15,42)"
       gradientUnits="userSpaceOnUse"
       id="linearGradient5680"
       xlink:href="#linearGradient5221-6-8"
       inkscape:collect="always" />
    <filter
       inkscape:collect="always"
       id="filter5703">
      <feGaussianBlur
         inkscape:collect="always"
         stdDeviation="0.38369837"
         id="feGaussianBlur5705" />
    </filter>
    <linearGradient
       inkscape:collect="always"
       xlink:href="#linearGradient5221-6-7"
       id="linearGradient5662-5"
       gradientUnits="userSpaceOnUse"
       gradientTransform="matrix(0,-1,1,0,-15,42)"
       x1="4"
       y1="30"
       x2="15"
       y2="24" />
    <linearGradient
       id="linearGradient5221-6-7">
      <stop
         style="stop-color:#a3a3a3;stop-opacity:1;"
         offset="0"
         id="stop5223-8-78" />
      <stop
         style="stop-color:#787878;stop-opacity:1;"
         offset="1"
         id="stop5225-0-28" />
    </linearGradient>
    <filter
       inkscape:collect="always"
       id="filter5772"
       x="-0.12399036"
       width="1.2479807"
       y="-0.11625847"
       height="1.2325169">
      <feGaussianBlur
         inkscape:collect="always"
         stdDeviation="1.9184919"
         id="feGaussianBlur5774" />
    </filter>
  </defs>
  <sodipodi:namedview
     id="base"
     pagecolor="#ffffff"
     bordercolor="#666666"
     borderopacity="1.0"
     inkscape:pageopacity="0.0"
     inkscape:pageshadow="2"
     inkscape:zoom="9.8994949"
     inkscape:cx="26.677489"
     inkscape:cy="23.885976"
     inkscape:current-layer="layer5"
     showgrid="true"
     inkscape:grid-bbox="true"
     inkscape:document-units="px"
     inkscape:window-width="1139"
     inkscape:window-height="866"
     inkscape:window-x="355"
     inkscape:window-y="152"
     inkscape:window-maximized="0">
    <inkscape:grid
       type="xygrid"
       id="grid4680" />
  </sodipodi:namedview>
  <metadata
     id="metadata4665">
    <rdf:RDF>
      <cc:Work
         rdf:about="">
        <dc:format>image/svg+xml</dc:format>
        <dc:type
           rdf:resource="http://purl.org/dc/dcmitype/StillImage" />
        <dc:title></dc:title>
      </cc:Work>
    </rdf:RDF>
  </metadata>
  <g
     inkscape:groupmode="layer"
     id="layer5"
     inkscape:label="glow"
     style="display:inline">
    <path
       inkscape:connector-curvature="0"
       style="fill:none;fill-opacity:1;stroke:#ffffff;display:inline;stroke-opacity:1;stroke-width:2;stroke-miterlimit:4;stroke-dasharray:none;filter:url(#filter5772)"
       d="M 37.84375,1.40625 C 36.903736,1.276222 36.542643,2.335287 36,3 c -2.109491,0.72944 -3.591273,1.6723 -1,4 -1.045341,1.522671 -1.642031,2.821015 2,2 1.679183,1.115591 2.748687,0.930532 3,-1 1.212141,2.192124 2.052807,0.545671 3,0 C 46.594031,7.502661 44.72415,6.111655 44,5 44.952225,3.748989 46.116178,2.401737 43,3 42.384733,1.864123 41.230138,1.331022 39,2 38.527395,1.638124 38.157088,1.449593 37.84375,1.40625 z M 27.6875,8.71875 C 27.140908,8.781537 26.523611,9.143611 26,10 c -1.095453,-2.826637 -2,0 -2,0 -2.224208,-0.0028 -2.875364,0.298197 -2,2 -1.486637,1.220213 -1.838316,2.380085 1,2 -2.016791,2.236058 0.999999,3 2,2 1,2 3,-1 3,-1 0,0 3.159743,2.207216 1,-2 1.83637,-0.14391 3.591047,-1.262621 0,-2 0.803463,-1.061904 -0.109997,-2.41938 -1.3125,-2.28125 z m -10.625,6.75 c -0.538186,0.02637 -1.331974,0.462983 -1.8125,1.09375 -1.006203,-0.128542 -4.148779,-1.418254 -3,1 -2.626845,0.704479 -2.658724,2.193463 0,3 -1.696549,1.136718 -0.119029,1.625127 1.75,0.4375 1.429633,1.885863 2.513908,1.250174 3.40625,-0.625 1.092909,0.573524 2.564713,0.621023 0.78125,-1.34375 0.611225,-0.80617 2.279106,-2.07778 -0.71875,-2.15625 0.429293,-1.056516 0.131936,-1.432616 -0.40625,-1.40625 z M 8,26 c 2,7 2,12 2,15 l 6,0 c 0,-3 0,-8 2,-15 -4,1 -6,1 -10,0 z"
       id="path3394-9" />
  </g>
  <g
     inkscape:groupmode="layer"
     id="layer6"
     inkscape:label="sunken"
     style="display:inline">
    <path
       inkscape:connector-curvature="0"
       style="fill:url(#linearGradient5680);fill-opacity:1;stroke:#000000;stroke-width:1.20000005;stroke-miterlimit:4;stroke-opacity:1;stroke-dasharray:none;display:inline;filter:url(#filter5703)"
       d="M 37.84375,1.4062501 C 36.903736,1.276222 36.542643,2.3352869 36,3.0000001 c -2.109491,0.7294396 -3.591273,1.6723004 -1,4 C 33.954659,8.522671 33.357969,9.821015 37,9 c 1.679183,1.115591 2.748687,0.930532 3,-1 1.212141,2.192124 2.052807,0.545671 3,0 3.594031,-0.497339 1.72415,-1.888345 1,-2.9999999 0.952225,-1.2510114 2.116178,-2.5982629 -1,-2 -0.615267,-1.1358775 -1.769862,-1.6689783 -4,-1 -0.472605,-0.3618759 -0.842912,-0.5504073 -1.15625,-0.59375 z M 27.6875,8.71875 C 27.140908,8.781537 26.523611,9.143611 26,10 c -1.095453,-2.8266369 -2,0 -2,0 -2.224208,-0.0028 -2.875364,0.298197 -2,2 -1.486637,1.220213 -1.838316,2.380085 1,2 -2.016791,2.236058 0.999999,3 2,2 1,2 3,-1 3,-1 0,0 3.159743,2.207216 1,-2 1.83637,-0.14391 3.591047,-1.262621 0,-2 0.803463,-1.061903 -0.109997,-2.41938 -1.3125,-2.28125 z m -10.625,6.75 c -0.538186,0.02637 -1.331974,0.462983 -1.8125,1.09375 -1.006203,-0.128542 -4.148779,-1.418254 -3,1 -2.626845,0.704479 -2.658724,2.193463 0,3 -1.696549,1.136718 -0.119029,1.625127 1.75,0.4375 1.429633,1.885863 2.513908,1.250174 3.40625,-0.625 1.092909,0.573524 2.564713,0.621023 0.78125,-1.34375 0.611225,-0.80617 2.279106,-2.07778 -0.71875,-2.15625 0.429293,-1.056516 0.131936,-1.432616 -0.40625,-1.40625 z M 8,26 c 2,7 2,12 2,15 l 6,0 c 0,-3 0,-8 2,-15 -4,1 -6,1 -10,0 z"
       id="path3394-6" />
  </g>
  <g
     id="layer1"
     inkscape:label="Layer 1"
     inkscape:groupmode="layer"
     style="display:inline">
    <path
       style="fill:url(#linearGradient5662);fill-opacity:1;stroke:none;display:inline"
       d="M 37.84375,1.40625 C 36.903736,1.2762219 36.542643,2.3352868 36,3 c -2.109491,0.7294396 -3.591273,1.6723004 -1,4 -1.045341,1.5226706 -1.642031,2.8210153 2,2 1.679183,1.115591 2.748687,0.9305321 3,-1 1.212141,2.192124 2.052807,0.5456707 3,0 C 46.594031,7.5026609 44.72415,6.1116549 44,5 44.952225,3.7489886 46.116178,2.4017371 43,3 42.384733,1.8641225 41.230138,1.3310217 39,2 38.527395,1.6381241 38.157088,1.4495927 37.84375,1.40625 z M 27.6875,8.71875 C 27.140908,8.7815366 26.523611,9.1436109 26,10 c -1.095453,-2.826637 -2,0 -2,0 -2.224208,-0.00276 -2.875364,0.298197 -2,2 -1.486637,1.220213 -1.838316,2.380085 1,2 -2.016791,2.236058 0.999999,3 2,2 1,2 3,-1 3,-1 0,0 3.159743,2.207216 1,-2 1.83637,-0.14391 3.591047,-1.262621 0,-2 0.803463,-1.0619036 -0.109997,-2.4193805 -1.3125,-2.28125 z m -10.625,6.75 c -0.538186,0.02637 -1.331974,0.462983 -1.8125,1.09375 -1.006203,-0.128542 -4.148779,-1.418254 -3,1 -2.626845,0.704479 -2.658724,2.193463 0,3 -1.696549,1.136718 -0.119029,1.625127 1.75,0.4375 1.429633,1.885863 2.513908,1.250174 3.40625,-0.625 1.092909,0.573524 2.564713,0.621023 0.78125,-1.34375 0.611225,-0.80617 2.279106,-2.07778 -0.71875,-2.15625 0.429293,-1.056516 0.131936,-1.432616 -0.40625,-1.40625 z M 8,26 c 2,7 2,12 2,15 l 6,0 c 0,-3 0,-8 2,-15 -4,1 -6,1 -10,0 z"
       id="path3394"
       inkscape:connector-curvature="0" />
  </g>
</svg>
