<?xml version="1.0" encoding="UTF-8" standalone="no"?>
<!-- Created with Inkscape (http://www.inkscape.org/) -->

<svg
   xmlns:dc="http://purl.org/dc/elements/1.1/"
   xmlns:cc="http://creativecommons.org/ns#"
   xmlns:rdf="http://www.w3.org/1999/02/22-rdf-syntax-ns#"
   xmlns:svg="http://www.w3.org/2000/svg"
   xmlns="http://www.w3.org/2000/svg"
   xmlns:xlink="http://www.w3.org/1999/xlink"
   xmlns:sodipodi="http://sodipodi.sourceforge.net/DTD/sodipodi-0.dtd"
   xmlns:inkscape="http://www.inkscape.org/namespaces/inkscape"
   width="48px"
   height="48px"
   id="svg4660"
   version="1.1"
   inkscape:version="0.48.1 r9760"
   sodipodi:docname="ic_sound_inkscape.svg">
  <defs
     id="defs4662">
    <linearGradient
       id="linearGradient5221">
      <stop
         style="stop-color:#a3a3a3;stop-opacity:1;"
         offset="0"
         id="stop5223" />
      <stop
         style="stop-color:#787878;stop-opacity:1;"
         offset="1"
         id="stop5225" />
    </linearGradient>
    <linearGradient
       inkscape:collect="always"
       xlink:href="#linearGradient5221"
       id="linearGradient5227"
       x1="25"
       y1="1"
       x2="25"
       y2="46"
       gradientUnits="userSpaceOnUse" />
    <linearGradient
       inkscape:collect="always"
       xlink:href="#linearGradient5221-8"
       id="linearGradient5227-9"
       x1="25"
       y1="1"
       x2="25"
       y2="46"
       gradientUnits="userSpaceOnUse" />
    <linearGradient
       id="linearGradient5221-8">
      <stop
         style="stop-color:#a3a3a3;stop-opacity:1;"
         offset="0"
         id="stop5223-4" />
      <stop
         style="stop-color:#787878;stop-opacity:1;"
         offset="1"
         id="stop5225-5" />
    </linearGradient>
    <linearGradient
       y2="46"
       x2="25"
       y1="1"
       x1="25"
       gradientUnits="userSpaceOnUse"
       id="linearGradient5244"
       xlink:href="#linearGradient5221-8"
       inkscape:collect="always" />
    <filter
       inkscape:collect="always"
       id="filter5296"
       x="-0.12765156"
       width="1.2553031"
       y="-0.11321385"
       height="1.2264277">
      <feGaussianBlur
         inkscape:collect="always"
         stdDeviation="2.1094925"
         id="feGaussianBlur5298" />
    </filter>
    <linearGradient
       inkscape:collect="always"
       xlink:href="#linearGradient5221-0"
       id="linearGradient5227-92"
       x1="25"
       y1="1"
       x2="25"
       y2="46"
       gradientUnits="userSpaceOnUse" />
    <linearGradient
       id="linearGradient5221-0">
      <stop
         style="stop-color:#a3a3a3;stop-opacity:1;"
         offset="0"
         id="stop5223-1" />
      <stop
         style="stop-color:#787878;stop-opacity:1;"
         offset="1"
         id="stop5225-7" />
    </linearGradient>
    <linearGradient
       y2="46"
       x2="25"
       y1="1"
       x1="25"
       gradientUnits="userSpaceOnUse"
       id="linearGradient5244-6"
       xlink:href="#linearGradient5221-0"
       inkscape:collect="always" />
    <filter
       inkscape:collect="always"
       id="filter5322">
      <feGaussianBlur
         inkscape:collect="always"
         stdDeviation="0.42189849"
         id="feGaussianBlur5324" />
    </filter>
  </defs>
  <sodipodi:namedview
     id="base"
     pagecolor="#ffffff"
     bordercolor="#666666"
     borderopacity="1.0"
     inkscape:pageopacity="0.0"
     inkscape:pageshadow="2"
     inkscape:zoom="9.8994949"
     inkscape:cx="19.949727"
     inkscape:cy="23.446367"
     inkscape:current-layer="layer6"
     showgrid="true"
     inkscape:grid-bbox="true"
     inkscape:document-units="px"
     inkscape:window-width="1132"
     inkscape:window-height="755"
     inkscape:window-x="233"
     inkscape:window-y="209"
     inkscape:window-maximized="0">
    <inkscape:grid
       type="xygrid"
       id="grid4680" />
  </sodipodi:namedview>
  <metadata
     id="metadata4665">
    <rdf:RDF>
      <cc:Work
         rdf:about="">
        <dc:format>image/svg+xml</dc:format>
        <dc:type
           rdf:resource="http://purl.org/dc/dcmitype/StillImage" />
        <dc:title></dc:title>
      </cc:Work>
    </rdf:RDF>
  </metadata>
  <g
     inkscape:groupmode="layer"
     id="layer5"
     inkscape:label="glow">
    <path
       inkscape:connector-curvature="0"
       style="font-size:medium;font-style:normal;font-variant:normal;font-weight:normal;font-stretch:normal;text-indent:0;text-align:start;text-decoration:none;line-height:normal;letter-spacing:normal;word-spacing:normal;text-transform:none;direction:ltr;block-progression:tb;writing-mode:lr-tb;text-anchor:start;baseline-shift:baseline;color:#000000;fill:url(#linearGradient5244);fill-opacity:1;stroke:#ffffff;stroke-width:2;marker:none;visibility:visible;display:inline;overflow:visible;enable-background:accumulate;font-family:Sans;-inkscape-font-specification:Sans;stroke-opacity:1;stroke-miterlimit:4;stroke-dasharray:none;filter:url(#filter5296)"
       d="m 38.46875,1.53125 -1.25,0.5625 c 6.834232,15.035309 6.834232,28.558441 0,43.59375 l 1.25,0.5625 c 6.964598,-15.322113 6.964598,-29.396637 0,-44.71875 z M 32.90625,7 31.71875,7.6875 c 5.379097,9.413421 5.379097,23.024079 0,32.4375 l 1.1875,0.6875 c 5.659965,-9.904939 5.659965,-23.907562 0,-33.8125 z M 24.71875,8.4375 23.5625,9.625 C 22.223273,10.964228 20.150665,12.649557 18.125,14 16.099335,15.350443 14.034912,16.3125 13,16.3125 l -8.28125,0 -0.6875,0 0,0.6875 0,13.8125 0,0.6875 0.71875,0 c 2.8281312,-0.0789 5.476969,0 8.25,0 1.034912,0 3.099335,0.930807 5.125,2.28125 2.025665,1.350443 4.098273,3.067022 5.4375,4.40625 l 1.15625,1.1875 0,-1.6875 0,-27.59375 0,-1.65625 z M 28.75,12.46875 27.59375,13.25 c 1.183621,1.775431 1.96875,6.242394 1.96875,10.65625 0,4.413856 -0.785129,8.880819 -1.96875,10.65625 l 1.15625,0.75 c 1.576144,-2.364217 2.1875,-6.850868 2.1875,-11.40625 0,-4.555382 -0.611356,-9.073283 -2.1875,-11.4375 z"
       id="path4668-2" />
  </g>
  <g
     inkscape:groupmode="layer"
     id="layer6"
     inkscape:label="sunken">
    <path
       inkscape:connector-curvature="0"
       style="font-size:medium;font-style:normal;font-variant:normal;font-weight:normal;font-stretch:normal;text-indent:0;text-align:start;text-decoration:none;line-height:normal;letter-spacing:normal;word-spacing:normal;text-transform:none;direction:ltr;block-progression:tb;writing-mode:lr-tb;text-anchor:start;baseline-shift:baseline;color:#000000;fill:url(#linearGradient5244-6);fill-opacity:1;stroke:#000000;stroke-width:1.19999999999999996;marker:none;visibility:visible;display:inline;overflow:visible;enable-background:accumulate;font-family:Sans;-inkscape-font-specification:Sans;stroke-opacity:1;stroke-miterlimit:4;stroke-dasharray:none;filter:url(#filter5322)"
       d="m 38.46875,1.53125 -1.25,0.5625 c 6.834232,15.035309 6.834232,28.558441 0,43.59375 l 1.25,0.5625 c 6.964598,-15.322113 6.964598,-29.396637 0,-44.71875 z M 32.90625,7 31.71875,7.6875 c 5.379097,9.413421 5.379097,23.024079 0,32.4375 l 1.1875,0.6875 c 5.659965,-9.904939 5.659965,-23.907562 0,-33.8125 z M 24.71875,8.4375 23.5625,9.625 C 22.223273,10.964228 20.150665,12.649557 18.125,14 16.099335,15.350443 14.034912,16.3125 13,16.3125 l -8.28125,0 -0.6875,0 0,0.6875 0,13.8125 0,0.6875 0.71875,0 c 2.8281312,-0.0789 5.476969,0 8.25,0 1.034912,0 3.099335,0.930807 5.125,2.28125 2.025665,1.350443 4.098273,3.067022 5.4375,4.40625 l 1.15625,1.1875 0,-1.6875 0,-27.59375 0,-1.65625 z M 28.75,12.46875 27.59375,13.25 c 1.183621,1.775431 1.96875,6.242394 1.96875,10.65625 0,4.413856 -0.785129,8.880819 -1.96875,10.65625 l 1.15625,0.75 c 1.576144,-2.364217 2.1875,-6.850868 2.1875,-11.40625 0,-4.555382 -0.611356,-9.073283 -2.1875,-11.4375 z"
       id="path4668-9" />
  </g>
  <g
     id="layer1"
     inkscape:label="Layer 1"
     inkscape:groupmode="layer">
    <path
       style="font-size:medium;font-style:normal;font-variant:normal;font-weight:normal;font-stretch:normal;text-indent:0;text-align:start;text-decoration:none;line-height:normal;letter-spacing:normal;word-spacing:normal;text-transform:none;direction:ltr;block-progression:tb;writing-mode:lr-tb;text-anchor:start;baseline-shift:baseline;color:#000000;fill:url(#linearGradient5227);fill-opacity:1.0;stroke:none;stroke-width:1.37988281000000002px;marker:none;visibility:visible;display:inline;overflow:visible;enable-background:accumulate;font-family:Sans;-inkscape-font-specification:Sans"
       d="M 38.46875 1.53125 L 37.21875 2.09375 C 44.052982 17.129059 44.052982 30.652191 37.21875 45.6875 L 38.46875 46.25 C 45.433348 30.927887 45.433348 16.853363 38.46875 1.53125 z M 32.90625 7 L 31.71875 7.6875 C 37.097847 17.100921 37.097847 30.711579 31.71875 40.125 L 32.90625 40.8125 C 38.566215 30.907561 38.566215 16.904938 32.90625 7 z M 24.71875 8.4375 L 23.5625 9.625 C 22.223273 10.964228 20.150665 12.649557 18.125 14 C 16.099335 15.350443 14.034912 16.3125 13 16.3125 L 4.71875 16.3125 L 4.03125 16.3125 L 4.03125 17 L 4.03125 30.8125 L 4.03125 31.5 L 4.75 31.5 C 7.5781312 31.4211 10.226969 31.5 13 31.5 C 14.034912 31.5 16.099335 32.430807 18.125 33.78125 C 20.150665 35.131693 22.223273 36.848272 23.5625 38.1875 L 24.71875 39.375 L 24.71875 37.6875 L 24.71875 10.09375 L 24.71875 8.4375 z M 28.75 12.46875 L 27.59375 13.25 C 28.777371 15.025431 29.5625 19.492394 29.5625 23.90625 C 29.5625 28.320106 28.777371 32.787069 27.59375 34.5625 L 28.75 35.3125 C 30.326144 32.948283 30.9375 28.461632 30.9375 23.90625 C 30.9375 19.350868 30.326144 14.832967 28.75 12.46875 z "
       id="path4668" />
  </g>
</svg>
