<?xml version="1.0" encoding="UTF-8" standalone="no"?>
<!-- Created with Inkscape (http://www.inkscape.org/) -->

<svg
   xmlns:dc="http://purl.org/dc/elements/1.1/"
   xmlns:cc="http://creativecommons.org/ns#"
   xmlns:rdf="http://www.w3.org/1999/02/22-rdf-syntax-ns#"
   xmlns:svg="http://www.w3.org/2000/svg"
   xmlns="http://www.w3.org/2000/svg"
   xmlns:xlink="http://www.w3.org/1999/xlink"
   xmlns:sodipodi="http://sodipodi.sourceforge.net/DTD/sodipodi-0.dtd"
   xmlns:inkscape="http://www.inkscape.org/namespaces/inkscape"
   width="48px"
   height="48px"
   id="svg4660"
   version="1.1"
   inkscape:version="0.48.2 r9819"
   sodipodi:docname="ic_sound_pfeife_on.svg">
  <defs
     id="defs4662">
    <linearGradient
       id="linearGradient5221">
      <stop
         style="stop-color:#a3a3a3;stop-opacity:1;"
         offset="0"
         id="stop5223" />
      <stop
         style="stop-color:#787878;stop-opacity:1;"
         offset="1"
         id="stop5225" />
    </linearGradient>
    <linearGradient
       inkscape:collect="always"
       xlink:href="#linearGradient5221-8"
       id="linearGradient5227-9"
       x1="25"
       y1="1"
       x2="25"
       y2="46"
       gradientUnits="userSpaceOnUse" />
    <linearGradient
       id="linearGradient5221-8">
      <stop
         style="stop-color:#a3a3a3;stop-opacity:1;"
         offset="0"
         id="stop5223-4" />
      <stop
         style="stop-color:#787878;stop-opacity:1;"
         offset="1"
         id="stop5225-5" />
    </linearGradient>
    <linearGradient
       inkscape:collect="always"
       xlink:href="#linearGradient5221-0"
       id="linearGradient5227-92"
       x1="25"
       y1="1"
       x2="25"
       y2="46"
       gradientUnits="userSpaceOnUse" />
    <linearGradient
       id="linearGradient5221-0">
      <stop
         style="stop-color:#a3a3a3;stop-opacity:1;"
         offset="0"
         id="stop5223-1" />
      <stop
         style="stop-color:#787878;stop-opacity:1;"
         offset="1"
         id="stop5225-7" />
    </linearGradient>
    <linearGradient
       inkscape:collect="always"
       xlink:href="#linearGradient5221-2"
       id="linearGradient4735-5"
       x1="2"
       y1="25"
       x2="36"
       y2="25"
       gradientUnits="userSpaceOnUse" />
    <linearGradient
       id="linearGradient5221-2">
      <stop
         style="stop-color:#a3a3a3;stop-opacity:1;"
         offset="0"
         id="stop5223-0" />
      <stop
         style="stop-color:#787878;stop-opacity:1;"
         offset="1"
         id="stop5225-2" />
    </linearGradient>
    <linearGradient
       inkscape:collect="always"
       xlink:href="#linearGradient5221-6"
       id="linearGradient4735-4"
       x1="2"
       y1="25"
       x2="36"
       y2="25"
       gradientUnits="userSpaceOnUse" />
    <linearGradient
       id="linearGradient5221-6">
      <stop
         style="stop-color:#a3a3a3;stop-opacity:1;"
         offset="0"
         id="stop5223-8" />
      <stop
         style="stop-color:#787878;stop-opacity:1;"
         offset="1"
         id="stop5225-0" />
    </linearGradient>
    <linearGradient
       gradientTransform="translate(-7,4)"
       y2="23"
       x2="30"
       y1="20"
       x1="23"
       gradientUnits="userSpaceOnUse"
       id="linearGradient4833"
       xlink:href="#linearGradient5221-6"
       inkscape:collect="always" />
    <linearGradient
       gradientTransform="translate(0,-2)"
       y2="25"
       x2="36"
       y1="25"
       x1="2"
       gradientUnits="userSpaceOnUse"
       id="linearGradient4833-6"
       xlink:href="#linearGradient5221-6-5"
       inkscape:collect="always" />
    <linearGradient
       id="linearGradient5221-6-5">
      <stop
         style="stop-color:#a3a3a3;stop-opacity:1;"
         offset="0"
         id="stop5223-8-0" />
      <stop
         style="stop-color:#787878;stop-opacity:1;"
         offset="1"
         id="stop5225-0-4" />
    </linearGradient>
    <linearGradient
       gradientTransform="translate(0,-2)"
       y2="25"
       x2="36"
       y1="25"
       x1="2"
       gradientUnits="userSpaceOnUse"
       id="linearGradient4833-5"
       xlink:href="#linearGradient5221-6-4"
       inkscape:collect="always" />
    <linearGradient
       id="linearGradient5221-6-4">
      <stop
         style="stop-color:#a3a3a3;stop-opacity:1;"
         offset="0"
         id="stop5223-8-2" />
      <stop
         style="stop-color:#787878;stop-opacity:1;"
         offset="1"
         id="stop5225-0-2" />
    </linearGradient>
    <linearGradient
       gradientTransform="translate(-7,4)"
       y2="23"
       x2="30"
       y1="20"
       x1="23"
       gradientUnits="userSpaceOnUse"
       id="linearGradient4833-9"
       xlink:href="#linearGradient5221-6-7"
       inkscape:collect="always" />
    <linearGradient
       id="linearGradient5221-6-7">
      <stop
         style="stop-color:#a3a3a3;stop-opacity:1;"
         offset="0"
         id="stop5223-8-4" />
      <stop
         style="stop-color:#787878;stop-opacity:1;"
         offset="1"
         id="stop5225-0-9" />
    </linearGradient>
    <linearGradient
       gradientTransform="translate(-7,4)"
       y2="23"
       x2="30"
       y1="20"
       x1="23"
       gradientUnits="userSpaceOnUse"
       id="linearGradient4833-0"
       xlink:href="#linearGradient5221-6-70"
       inkscape:collect="always" />
    <linearGradient
       id="linearGradient5221-6-70">
      <stop
         style="stop-color:#a3a3a3;stop-opacity:1;"
         offset="0"
         id="stop5223-8-3" />
      <stop
         style="stop-color:#787878;stop-opacity:1;"
         offset="1"
         id="stop5225-0-0" />
    </linearGradient>
    <linearGradient
       y2="23"
       x2="30"
       y1="20"
       x1="23"
       gradientTransform="translate(-7,4)"
       gradientUnits="userSpaceOnUse"
       id="linearGradient3825-4"
       xlink:href="#linearGradient5221-6-70"
       inkscape:collect="always" />
    <filter
       inkscape:collect="always"
       id="filter3941">
      <feGaussianBlur
         inkscape:collect="always"
         stdDeviation="0.24"
         id="feGaussianBlur3943" />
    </filter>
    <linearGradient
       inkscape:collect="always"
       xlink:href="#linearGradient5221-6-76"
       id="linearGradient5662"
       gradientUnits="userSpaceOnUse"
       gradientTransform="matrix(0,-1,1,0,-15,42)"
       x1="4"
       y1="30"
       x2="15"
       y2="24" />
    <linearGradient
       id="linearGradient5221-6-76">
      <stop
         style="stop-color:#a3a3a3;stop-opacity:1;"
         offset="0"
         id="stop5223-8-5" />
      <stop
         style="stop-color:#787878;stop-opacity:1;"
         offset="1"
         id="stop5225-0-08" />
    </linearGradient>
    <linearGradient
       y2="37"
       x2="36"
       y1="47"
       x1="22"
       gradientTransform="matrix(0,-0.60278373,0.49241404,0,14.439986,33.672377)"
       gradientUnits="userSpaceOnUse"
       id="linearGradient4145"
       xlink:href="#linearGradient5221-6-76"
       inkscape:collect="always" />
    <linearGradient
       y2="37"
       x2="36"
       y1="47"
       x1="22"
       gradientTransform="matrix(0,-0.60278373,0.49241404,0,14.439986,33.672377)"
       gradientUnits="userSpaceOnUse"
       id="linearGradient4145-4"
       xlink:href="#linearGradient5221-6-76-6"
       inkscape:collect="always" />
    <linearGradient
       id="linearGradient5221-6-76-6">
      <stop
         style="stop-color:#a3a3a3;stop-opacity:1;"
         offset="0"
         id="stop5223-8-5-9" />
      <stop
         style="stop-color:#787878;stop-opacity:1;"
         offset="1"
         id="stop5225-0-08-9" />
    </linearGradient>
    <linearGradient
       y2="37"
       x2="36"
       y1="47"
       x1="22"
       gradientTransform="matrix(0,-0.60278373,0.49241404,0,14.288267,30.877944)"
       gradientUnits="userSpaceOnUse"
       id="linearGradient4179"
       xlink:href="#linearGradient5221-6-76-6"
       inkscape:collect="always" />
    <linearGradient
       y2="37"
       x2="36"
       y1="47"
       x1="22"
       gradientTransform="matrix(0,-0.60278373,0.49241404,0,14.288267,30.877944)"
       gradientUnits="userSpaceOnUse"
       id="linearGradient4179-5"
       xlink:href="#linearGradient5221-6-76-6-5"
       inkscape:collect="always" />
    <linearGradient
       id="linearGradient5221-6-76-6-5">
      <stop
         style="stop-color:#a3a3a3;stop-opacity:1;"
         offset="0"
         id="stop5223-8-5-9-9" />
      <stop
         style="stop-color:#787878;stop-opacity:1;"
         offset="1"
         id="stop5225-0-08-9-7" />
    </linearGradient>
    <linearGradient
       y2="37"
       x2="36"
       y1="47"
       x1="22"
       gradientTransform="matrix(0,-0.60278373,0.49241404,0,14.288267,30.877944)"
       gradientUnits="userSpaceOnUse"
       id="linearGradient4214"
       xlink:href="#linearGradient5221-6-76-6-5"
       inkscape:collect="always" />
    <linearGradient
       y2="37"
       x2="36"
       y1="47"
       x1="22"
       gradientTransform="matrix(0,-0.60278373,0.49241404,0,14.288267,30.877944)"
       gradientUnits="userSpaceOnUse"
       id="linearGradient4179-6"
       xlink:href="#linearGradient5221-6-76-6-6"
       inkscape:collect="always" />
    <linearGradient
       id="linearGradient5221-6-76-6-6">
      <stop
         style="stop-color:#a3a3a3;stop-opacity:1;"
         offset="0"
         id="stop5223-8-5-9-6" />
      <stop
         style="stop-color:#787878;stop-opacity:1;"
         offset="1"
         id="stop5225-0-08-9-6" />
    </linearGradient>
    <linearGradient
       y2="37"
       x2="36"
       y1="47"
       x1="22"
       gradientTransform="matrix(0,-0.60278373,0.49241404,0,14.288267,30.877944)"
       gradientUnits="userSpaceOnUse"
       id="linearGradient4214-1"
       xlink:href="#linearGradient5221-6-76-6-6"
       inkscape:collect="always" />
    <filter
       inkscape:collect="always"
       id="filter4282">
      <feGaussianBlur
         inkscape:collect="always"
         stdDeviation="0.2849874"
         id="feGaussianBlur4284" />
    </filter>
    <filter
       inkscape:collect="always"
       id="filter4342"
       x="-0.59847353"
       width="2.1969471"
       y="-0.19949118"
       height="1.3989824">
      <feGaussianBlur
         inkscape:collect="always"
         stdDeviation="1.9949118"
         id="feGaussianBlur4344" />
    </filter>
    <filter
       inkscape:collect="always"
       id="filter4346"
       x="-0.27886163"
       width="1.5577233"
       y="-0.38294278"
       height="1.7658856">
      <feGaussianBlur
         inkscape:collect="always"
         stdDeviation="1.9949118"
         id="feGaussianBlur4348" />
    </filter>
  </defs>
  <sodipodi:namedview
     id="base"
     pagecolor="#ffffff"
     bordercolor="#666666"
     borderopacity="1.0"
     inkscape:pageopacity="0.0"
     inkscape:pageshadow="2"
     inkscape:zoom="9.8994949"
     inkscape:cx="9.2963654"
     inkscape:cy="20.921342"
     inkscape:current-layer="layer5"
     showgrid="true"
     inkscape:grid-bbox="true"
     inkscape:document-units="px"
     inkscape:window-width="1491"
     inkscape:window-height="866"
     inkscape:window-x="59"
     inkscape:window-y="126"
     inkscape:window-maximized="0">
    <inkscape:grid
       type="xygrid"
       id="grid4680" />
  </sodipodi:namedview>
  <metadata
     id="metadata4665">
    <rdf:RDF>
      <cc:Work
         rdf:about="">
        <dc:format>image/svg+xml</dc:format>
        <dc:type
           rdf:resource="http://purl.org/dc/dcmitype/StillImage" />
        <dc:title></dc:title>
      </cc:Work>
    </rdf:RDF>
  </metadata>
  <g
     inkscape:groupmode="layer"
     id="layer5"
     inkscape:label="glow"
     style="display:inline">
    <path
       style="fill:url(#linearGradient3825-4);fill-opacity:1;stroke:none;display:inline;filter:url(#filter4342)"
       d="m 23,14 c 2,0 2,-2 0,-2 -1.781066,0 -3,0 -5,0 -2,0 -2,2 0,2 0,2 0,19 0,22 15,0 2,0 5,0 0,-1.587099 0.0329,-7.562541 0,-12 -0.965912,0 0,0 -2,0 2,-5 1.530585,-4.061171 2,-5 0,-2 0,-4.213677 0,-5 z"
       id="path3394-2"
       inkscape:connector-curvature="0"
       sodipodi:nodetypes="cccccccccc" />
    <path
       style="fill:url(#linearGradient4214-1);fill-opacity:1;stroke:none;display:inline;filter:url(#filter4346)"
       d="m 40.309271,6.408692 c -0.462877,-0.078379 -0.640684,0.5600083 -0.907888,0.960687 -1.038743,0.439694 -1.768394,1.008035 -0.492414,2.411134 -0.514741,0.917842 -0.80856,1.700463 0.984827,1.205568 0.826854,0.672461 1.353493,0.560909 1.477243,-0.602784 0.596875,1.321377 1.010831,0.328921 1.477242,0 C 44.618032,10.08351 43.697276,9.245033 43.340695,8.574946 43.809584,7.820856 44.382731,7.0087554 42.848281,7.369379 42.545315,6.6846903 41.976776,6.3633458 40.878625,6.7665948 40.645907,6.5484619 40.463563,6.4348185 40.309271,6.408692 z m -5.001081,4.407856 c -0.269148,0.03784 -0.573115,0.2561 -0.830948,0.772317 -0.539417,-1.703851 -0.984828,0 -0.984828,0 -1.095231,-0.0017 -1.41587,0.179749 -0.984828,1.205567 C 31.775545,13.529957 31.602373,14.229109 33,14 c -0.993096,1.347859 0.492413,1.808351 0.984828,1.205567 0.492414,1.205567 1.477242,-0.602784 1.477242,-0.602784 0,0 1.555902,1.330474 0.492414,-1.205567 0.904255,-0.08675 1.768282,-0.761087 0,-1.205568 0.395637,-0.640098 -0.05416,-1.458364 -0.646294,-1.3751 z m -5.231898,4.06879 c -0.265011,0.0159 -0.655883,0.279078 -0.892501,0.659295 -0.495468,-0.07748 -2.042917,-0.854901 -1.477242,0.602784 -1.293496,0.424647 -1.309193,1.322183 0,1.808351 -0.835404,0.685195 -0.05861,0.979599 0.861724,0.263718 0.703972,1.136767 1.237884,0.753584 1.677286,-0.37674 0.538164,0.345711 1.262901,0.374342 0.384698,-0.809991 0.300976,-0.485946 1.122264,-1.252452 -0.353922,-1.299752 0.211389,-0.636851 0.06497,-0.863558 -0.200043,-0.847665 z"
       id="path3394-3-3"
       inkscape:connector-curvature="0"
       sodipodi:nodetypes="sccccccccssccccccccsscccccccs" />
  </g>
  <g
     inkscape:groupmode="layer"
     id="layer6"
     inkscape:label="sunken"
     style="display:inline">
    <g
       id="g4250"
       style="fill:none;stroke:#000000;stroke-width:1.20000005;stroke-miterlimit:4;stroke-opacity:1;stroke-dasharray:none;filter:url(#filter4282)">
      <path
         sodipodi:nodetypes="cccccccccc"
         inkscape:connector-curvature="0"
         id="path3394-6"
         d="m 23,14 c 2,0 2,-2 0,-2 -1.781066,0 -3,0 -5,0 -2,0 -2,2 0,2 0,2 0,19 0,22 15,0 2,0 5,0 0,-1.587099 0.0329,-7.562541 0,-12 -0.965912,0 0,0 -2,0 2,-5 1.530585,-4.061171 2,-5 0,-2 0,-4.213677 0,-5 z"
         style="fill:none;stroke:#000000;stroke-width:1.20000005;stroke-miterlimit:4;stroke-opacity:1;stroke-dasharray:none;display:inline;filter:url(#filter3941)" />
      <path
         sodipodi:nodetypes="sccccccccssccccccccsscccccccs"
         inkscape:connector-curvature="0"
         id="path3394-3-4"
         d="m 40.309271,6.408692 c -0.462877,-0.078379 -0.640684,0.5600083 -0.907888,0.960687 -1.038743,0.439694 -1.768394,1.008035 -0.492414,2.411134 -0.514741,0.917842 -0.80856,1.700463 0.984827,1.205568 0.826854,0.672461 1.353493,0.560909 1.477243,-0.602784 0.596875,1.321377 1.010831,0.328921 1.477242,0 C 44.618032,10.08351 43.697276,9.245033 43.340695,8.574946 43.809584,7.820856 44.382731,7.0087554 42.848281,7.369379 42.545315,6.6846903 41.976776,6.3633458 40.878625,6.7665948 40.645907,6.5484619 40.463563,6.4348185 40.309271,6.408692 z m -5.001081,4.407856 c -0.269148,0.03784 -0.573115,0.2561 -0.830948,0.772317 -0.539417,-1.703851 -0.984828,0 -0.984828,0 -1.095231,-0.0017 -1.41587,0.179749 -0.984828,1.205567 C 31.775545,13.529957 31.602373,14.229109 33,14 c -0.993096,1.347859 0.492413,1.808351 0.984828,1.205567 0.492414,1.205567 1.477242,-0.602784 1.477242,-0.602784 0,0 1.555902,1.330474 0.492414,-1.205567 0.904255,-0.08675 1.768282,-0.761087 0,-1.205568 0.395637,-0.640098 -0.05416,-1.458364 -0.646294,-1.3751 z m -5.231898,4.06879 c -0.265011,0.0159 -0.655883,0.279078 -0.892501,0.659295 -0.495468,-0.07748 -2.042917,-0.854901 -1.477242,0.602784 -1.293496,0.424647 -1.309193,1.322183 0,1.808351 -0.835404,0.685195 -0.05861,0.979599 0.861724,0.263718 0.703972,1.136767 1.237884,0.753584 1.677286,-0.37674 0.538164,0.345711 1.262901,0.374342 0.384698,-0.809991 0.300976,-0.485946 1.122264,-1.252452 -0.353922,-1.299752 0.211389,-0.636851 0.06497,-0.863558 -0.200043,-0.847665 z"
         style="fill:none;stroke:#000000;stroke-width:1.20000005;stroke-miterlimit:4;stroke-opacity:1;stroke-dasharray:none;display:inline" />
    </g>
  </g>
  <g
     id="layer1"
     inkscape:label="Layer 1"
     inkscape:groupmode="layer"
     style="display:inline">
    <path
       style="fill:url(#linearGradient4833);fill-opacity:1;stroke:none;display:inline"
       d="m 23,14 c 2,0 2,-2 0,-2 -1.781066,0 -3,0 -5,0 -2,0 -2,2 0,2 0,2 0,19 0,22 15,0 2,0 5,0 0,-1.587099 0.0329,-7.562541 0,-12 -0.965912,0 0,0 -2,0 2,-5 1.530585,-4.061171 2,-5 0,-2 0,-4.213677 0,-5 z"
       id="path3394"
       inkscape:connector-curvature="0"
       sodipodi:nodetypes="cccccccccc" />
    <path
       style="fill:none;stroke:#ffffff;stroke-width:0.40000001;stroke-linecap:butt;stroke-linejoin:miter;stroke-miterlimit:4;stroke-opacity:1;stroke-dasharray:none"
       d="m 18,14 c 2,0 4,0 5,0"
       id="path4852"
       inkscape:connector-curvature="0"
       sodipodi:nodetypes="cc" />
    <path
       style="fill:url(#linearGradient4179);fill-opacity:1;stroke:none;display:inline"
       d="m 40.309271,6.408692 c -0.462877,-0.078379 -0.640684,0.5600083 -0.907888,0.960687 -1.038743,0.439694 -1.768394,1.008035 -0.492414,2.411134 -0.514741,0.917842 -0.80856,1.700463 0.984827,1.205568 0.826854,0.672461 1.353493,0.560909 1.477243,-0.602784 0.596875,1.321377 1.010831,0.328921 1.477242,0 C 44.618032,10.08351 43.697276,9.245033 43.340695,8.574946 43.809584,7.820856 44.382731,7.0087554 42.848281,7.369379 42.545315,6.6846903 41.976776,6.3633458 40.878625,6.7665948 40.645907,6.5484619 40.463563,6.4348185 40.309271,6.408692 z m -5.001081,4.407856 c -0.269148,0.03784 -0.573115,0.2561 -0.830948,0.772317 -0.539417,-1.703851 -0.984828,0 -0.984828,0 -1.095231,-0.0017 -1.41587,0.179749 -0.984828,1.205567 C 31.775545,13.529957 31.602373,14.229109 33,14 c -0.993096,1.347859 0.492413,1.808351 0.984828,1.205567 0.492414,1.205567 1.477242,-0.602784 1.477242,-0.602784 0,0 1.555902,1.330474 0.492414,-1.205567 0.904255,-0.08675 1.768282,-0.761087 0,-1.205568 0.395637,-0.640098 -0.05416,-1.458364 -0.646294,-1.3751 z m -5.231898,4.06879 c -0.265011,0.0159 -0.655883,0.279078 -0.892501,0.659295 -0.495468,-0.07748 -2.042917,-0.854901 -1.477242,0.602784 -1.293496,0.424647 -1.309193,1.322183 0,1.808351 -0.835404,0.685195 -0.05861,0.979599 0.861724,0.263718 0.703972,1.136767 1.237884,0.753584 1.677286,-0.37674 0.538164,0.345711 1.262901,0.374342 0.384698,-0.809991 0.300976,-0.485946 1.122264,-1.252452 -0.353922,-1.299752 0.211389,-0.636851 0.06497,-0.863558 -0.200043,-0.847665 z"
       id="path3394-3"
       inkscape:connector-curvature="0"
       sodipodi:nodetypes="sccccccccssccccccccsscccccccs" />
  </g>
</svg>
