<?xml version="1.0" encoding="UTF-8" standalone="no"?>
<!-- Created with Inkscape (http://www.inkscape.org/) -->

<svg
   xmlns:dc="http://purl.org/dc/elements/1.1/"
   xmlns:cc="http://creativecommons.org/ns#"
   xmlns:rdf="http://www.w3.org/1999/02/22-rdf-syntax-ns#"
   xmlns:svg="http://www.w3.org/2000/svg"
   xmlns="http://www.w3.org/2000/svg"
   xmlns:xlink="http://www.w3.org/1999/xlink"
   xmlns:sodipodi="http://sodipodi.sourceforge.net/DTD/sodipodi-0.dtd"
   xmlns:inkscape="http://www.inkscape.org/namespaces/inkscape"
   width="48px"
   height="48px"
   id="svg4660"
   version="1.1"
   inkscape:version="0.48.2 r9819"
   sodipodi:docname="ic_sound_horn_on_inkscape.svg">
  <defs
     id="defs4662">
    <linearGradient
       id="linearGradient5221">
      <stop
         style="stop-color:#a3a3a3;stop-opacity:1;"
         offset="0"
         id="stop5223" />
      <stop
         style="stop-color:#787878;stop-opacity:1;"
         offset="1"
         id="stop5225" />
    </linearGradient>
    <linearGradient
       inkscape:collect="always"
       xlink:href="#linearGradient5221-8"
       id="linearGradient5227-9"
       x1="25"
       y1="1"
       x2="25"
       y2="46"
       gradientUnits="userSpaceOnUse" />
    <linearGradient
       id="linearGradient5221-8">
      <stop
         style="stop-color:#a3a3a3;stop-opacity:1;"
         offset="0"
         id="stop5223-4" />
      <stop
         style="stop-color:#787878;stop-opacity:1;"
         offset="1"
         id="stop5225-5" />
    </linearGradient>
    <linearGradient
       inkscape:collect="always"
       xlink:href="#linearGradient5221-0"
       id="linearGradient5227-92"
       x1="25"
       y1="1"
       x2="25"
       y2="46"
       gradientUnits="userSpaceOnUse" />
    <linearGradient
       id="linearGradient5221-0">
      <stop
         style="stop-color:#a3a3a3;stop-opacity:1;"
         offset="0"
         id="stop5223-1" />
      <stop
         style="stop-color:#787878;stop-opacity:1;"
         offset="1"
         id="stop5225-7" />
    </linearGradient>
    <linearGradient
       inkscape:collect="always"
       xlink:href="#linearGradient5221-2"
       id="linearGradient4735-5"
       x1="2"
       y1="25"
       x2="36"
       y2="25"
       gradientUnits="userSpaceOnUse" />
    <linearGradient
       id="linearGradient5221-2">
      <stop
         style="stop-color:#a3a3a3;stop-opacity:1;"
         offset="0"
         id="stop5223-0" />
      <stop
         style="stop-color:#787878;stop-opacity:1;"
         offset="1"
         id="stop5225-2" />
    </linearGradient>
    <linearGradient
       inkscape:collect="always"
       xlink:href="#linearGradient5221-6"
       id="linearGradient4735-4"
       x1="2"
       y1="25"
       x2="36"
       y2="25"
       gradientUnits="userSpaceOnUse" />
    <linearGradient
       id="linearGradient5221-6">
      <stop
         style="stop-color:#a3a3a3;stop-opacity:1;"
         offset="0"
         id="stop5223-8" />
      <stop
         style="stop-color:#787878;stop-opacity:1;"
         offset="1"
         id="stop5225-0" />
    </linearGradient>
    <linearGradient
       gradientTransform="translate(0,-2)"
       y2="25"
       x2="36"
       y1="25"
       x1="2"
       gradientUnits="userSpaceOnUse"
       id="linearGradient4833"
       xlink:href="#linearGradient5221-6"
       inkscape:collect="always" />
    <linearGradient
       gradientTransform="translate(0,-2)"
       y2="25"
       x2="36"
       y1="25"
       x1="2"
       gradientUnits="userSpaceOnUse"
       id="linearGradient4833-6"
       xlink:href="#linearGradient5221-6-5"
       inkscape:collect="always" />
    <linearGradient
       id="linearGradient5221-6-5">
      <stop
         style="stop-color:#a3a3a3;stop-opacity:1;"
         offset="0"
         id="stop5223-8-0" />
      <stop
         style="stop-color:#787878;stop-opacity:1;"
         offset="1"
         id="stop5225-0-4" />
    </linearGradient>
    <linearGradient
       y2="25"
       x2="36"
       y1="25"
       x1="2"
       gradientTransform="translate(0,-2)"
       gradientUnits="userSpaceOnUse"
       id="linearGradient4925"
       xlink:href="#linearGradient5221-6-5"
       inkscape:collect="always" />
    <filter
       inkscape:collect="always"
       id="filter4948">
      <feGaussianBlur
         inkscape:collect="always"
         stdDeviation="0.3046875"
         id="feGaussianBlur4950" />
    </filter>
    <linearGradient
       gradientTransform="translate(0,-2)"
       y2="25"
       x2="36"
       y1="25"
       x1="2"
       gradientUnits="userSpaceOnUse"
       id="linearGradient4833-5"
       xlink:href="#linearGradient5221-6-4"
       inkscape:collect="always" />
    <linearGradient
       id="linearGradient5221-6-4">
      <stop
         style="stop-color:#a3a3a3;stop-opacity:1;"
         offset="0"
         id="stop5223-8-2" />
      <stop
         style="stop-color:#787878;stop-opacity:1;"
         offset="1"
         id="stop5225-0-2" />
    </linearGradient>
    <linearGradient
       y2="25"
       x2="36"
       y1="25"
       x1="2"
       gradientTransform="translate(0,-2)"
       gradientUnits="userSpaceOnUse"
       id="linearGradient4967"
       xlink:href="#linearGradient5221-8"
       inkscape:collect="always" />
    <filter
       inkscape:collect="always"
       id="filter5022"
       x="-0.082162921"
       width="1.1643258"
       y="-0.22243346"
       height="1.4448669">
      <feGaussianBlur
         inkscape:collect="always"
         stdDeviation="1.5234375"
         id="feGaussianBlur5024" />
    </filter>
  </defs>
  <sodipodi:namedview
     id="base"
     pagecolor="#ffffff"
     bordercolor="#666666"
     borderopacity="1.0"
     inkscape:pageopacity="0.0"
     inkscape:pageshadow="2"
     inkscape:zoom="9.8994949"
     inkscape:cx="24.365048"
     inkscape:cy="23.44517"
     inkscape:current-layer="layer5"
     showgrid="true"
     inkscape:grid-bbox="true"
     inkscape:document-units="px"
     inkscape:window-width="1139"
     inkscape:window-height="866"
     inkscape:window-x="59"
     inkscape:window-y="126"
     inkscape:window-maximized="0">
    <inkscape:grid
       type="xygrid"
       id="grid4680" />
  </sodipodi:namedview>
  <metadata
     id="metadata4665">
    <rdf:RDF>
      <cc:Work
         rdf:about="">
        <dc:format>image/svg+xml</dc:format>
        <dc:type
           rdf:resource="http://purl.org/dc/dcmitype/StillImage" />
        <dc:title></dc:title>
      </cc:Work>
    </rdf:RDF>
  </metadata>
  <g
     inkscape:groupmode="layer"
     id="layer5"
     inkscape:label="glow"
     style="display:inline">
    <path
       style="fill:url(#linearGradient4967);fill-opacity:1;stroke:#ffffff;display:inline;stroke-opacity:0;stroke-width:2;stroke-miterlimit:4;stroke-dasharray:none;filter:url(#filter5022)"
       d="m 44.4375,14.78125 -0.875,0.4375 c 0,0 1.9375,3.947917 1.9375,7.78125 0,3.833333 -1.9375,7.78125 -1.9375,7.78125 l 0.875,0.4375 c 0,0 2.0625,-4.052083 2.0625,-8.21875 0,-4.166667 -2.0625,-8.21875 -2.0625,-8.21875 z m -3,2 -0.875,0.4375 c 0,0 1.4375,2.947917 1.4375,5.78125 0,2.833333 -1.4375,5.78125 -1.4375,5.78125 l 0.875,0.4375 C 41.4375,29.21875 43,26.166667 43,23 43,19.833333 41.4375,16.78125 41.4375,16.78125 z M 36,17 c -7,4 -9,4 -24,4 -1,-5 -10,-5 -10,2 0,7 9,7 10,2 15,0 17,0 24,4 -1,-4 -1,-8 0,-12 z m 2.4375,1.78125 -0.875,0.4375 c 1.880743,3.761486 0,7.5625 0,7.5625 l 0.875,0.4375 c 0,0 2.119257,-4.198986 0,-8.4375 z"
       id="path3394-5"
       inkscape:connector-curvature="0" />
  </g>
  <g
     inkscape:groupmode="layer"
     id="layer6"
     inkscape:label="sunken"
     style="display:inline">
    <path
       style="fill:url(#linearGradient4925);fill-opacity:1;stroke:#000000;stroke-width:1.20000005;stroke-miterlimit:4;stroke-opacity:1;stroke-dasharray:none;display:inline;filter:url(#filter4948)"
       d="m 44.4375,14.78125 -0.875,0.4375 c 0,0 1.9375,3.947917 1.9375,7.78125 0,3.833333 -1.9375,7.78125 -1.9375,7.78125 l 0.875,0.4375 c 0,0 2.0625,-4.052083 2.0625,-8.21875 0,-4.166667 -2.0625,-8.21875 -2.0625,-8.21875 z m -3,2 -0.875,0.4375 c 0,0 1.4375,2.947917 1.4375,5.78125 0,2.833333 -1.4375,5.78125 -1.4375,5.78125 l 0.875,0.4375 C 41.4375,29.21875 43,26.166667 43,23 43,19.833333 41.4375,16.78125 41.4375,16.78125 z M 36,17 c -7,4 -9,4 -24,4 -1,-5 -10,-5 -10,2 0,7 9,7 10,2 15,0 17,0 24,4 -1,-4 -1,-8 0,-12 z m 2.4375,1.78125 -0.875,0.4375 c 1.880743,3.761486 0,7.5625 0,7.5625 l 0.875,0.4375 c 0,0 2.119257,-4.198986 0,-8.4375 z"
       id="path3394-6"
       inkscape:connector-curvature="0" />
  </g>
  <g
     id="layer1"
     inkscape:label="Layer 1"
     inkscape:groupmode="layer"
     style="display:inline">
    <path
       style="fill:url(#linearGradient4833);fill-opacity:1;stroke:none;display:inline"
       d="m 44.4375,14.78125 -0.875,0.4375 c 0,0 1.9375,3.947917 1.9375,7.78125 0,3.833333 -1.9375,7.78125 -1.9375,7.78125 l 0.875,0.4375 c 0,0 2.0625,-4.052083 2.0625,-8.21875 0,-4.166667 -2.0625,-8.21875 -2.0625,-8.21875 z m -3,2 -0.875,0.4375 c 0,0 1.4375,2.947917 1.4375,5.78125 0,2.833333 -1.4375,5.78125 -1.4375,5.78125 l 0.875,0.4375 C 41.4375,29.21875 43,26.166667 43,23 43,19.833333 41.4375,16.78125 41.4375,16.78125 z M 36,17 c -7,4 -9,4 -24,4 -1,-5 -10,-5 -10,2 0,7 9,7 10,2 15,0 17,0 24,4 -1,-4 -1,-8 0,-12 z m 2.4375,1.78125 -0.875,0.4375 c 1.880743,3.761486 0,7.5625 0,7.5625 l 0.875,0.4375 c 0,0 2.119257,-4.198986 0,-8.4375 z"
       id="path3394"
       inkscape:connector-curvature="0" />
    <path
       style="fill:none;stroke:#ffffff;stroke-width:0.5;stroke-linecap:butt;stroke-linejoin:miter;stroke-miterlimit:4;stroke-opacity:1;stroke-dasharray:none"
       d="m 12,21 c 0,0 -1,1 -1,2 0,1 1,2 1,2"
       id="path4852"
       inkscape:connector-curvature="0"
       sodipodi:nodetypes="czc" />
  </g>
</svg>
