<?xml version="1.0" encoding="UTF-8" standalone="no"?>
<!-- Created with Inkscape (http://www.inkscape.org/) -->

<svg
   xmlns:dc="http://purl.org/dc/elements/1.1/"
   xmlns:cc="http://creativecommons.org/ns#"
   xmlns:rdf="http://www.w3.org/1999/02/22-rdf-syntax-ns#"
   xmlns:svg="http://www.w3.org/2000/svg"
   xmlns="http://www.w3.org/2000/svg"
   xmlns:xlink="http://www.w3.org/1999/xlink"
   xmlns:sodipodi="http://sodipodi.sourceforge.net/DTD/sodipodi-0.dtd"
   xmlns:inkscape="http://www.inkscape.org/namespaces/inkscape"
   width="48px"
   height="48px"
   id="svg4660"
   version="1.1"
   inkscape:version="0.48.2 r9819"
   sodipodi:docname="ic_sound_on_inkscape.svg">
  <defs
     id="defs4662">
    <linearGradient
       id="linearGradient5221">
      <stop
         style="stop-color:#a3a3a3;stop-opacity:1;"
         offset="0"
         id="stop5223" />
      <stop
         style="stop-color:#787878;stop-opacity:1;"
         offset="1"
         id="stop5225" />
    </linearGradient>
    <linearGradient
       inkscape:collect="always"
       xlink:href="#linearGradient5221"
       id="linearGradient5227"
       x1="25"
       y1="1"
       x2="25"
       y2="46"
       gradientUnits="userSpaceOnUse"
       gradientTransform="matrix(0.46370236,0,0,0.34591195,23.971869,9.3573113)" />
    <linearGradient
       inkscape:collect="always"
       xlink:href="#linearGradient5221-8"
       id="linearGradient5227-9"
       x1="25"
       y1="1"
       x2="25"
       y2="46"
       gradientUnits="userSpaceOnUse" />
    <linearGradient
       id="linearGradient5221-8">
      <stop
         style="stop-color:#a3a3a3;stop-opacity:1;"
         offset="0"
         id="stop5223-4" />
      <stop
         style="stop-color:#787878;stop-opacity:1;"
         offset="1"
         id="stop5225-5" />
    </linearGradient>
    <linearGradient
       y2="46"
       x2="25"
       y1="1"
       x1="25"
       gradientUnits="userSpaceOnUse"
       id="linearGradient5244"
       xlink:href="#linearGradient5221-8"
       inkscape:collect="always" />
    <filter
       inkscape:collect="always"
       id="filter5296"
       x="-0.12765156"
       width="1.2553031"
       y="-0.11321385"
       height="1.2264277">
      <feGaussianBlur
         inkscape:collect="always"
         stdDeviation="2.1094925"
         id="feGaussianBlur5298" />
    </filter>
    <linearGradient
       inkscape:collect="always"
       xlink:href="#linearGradient5221-0"
       id="linearGradient5227-92"
       x1="25"
       y1="1"
       x2="25"
       y2="46"
       gradientUnits="userSpaceOnUse" />
    <linearGradient
       id="linearGradient5221-0">
      <stop
         style="stop-color:#a3a3a3;stop-opacity:1;"
         offset="0"
         id="stop5223-1" />
      <stop
         style="stop-color:#787878;stop-opacity:1;"
         offset="1"
         id="stop5225-7" />
    </linearGradient>
    <linearGradient
       y2="46"
       x2="25"
       y1="1"
       x1="25"
       gradientUnits="userSpaceOnUse"
       id="linearGradient5244-6"
       xlink:href="#linearGradient5221-0"
       inkscape:collect="always" />
    <filter
       inkscape:collect="always"
       id="filter5322">
      <feGaussianBlur
         inkscape:collect="always"
         stdDeviation="0.42189849"
         id="feGaussianBlur5324" />
    </filter>
    <linearGradient
       inkscape:collect="always"
       xlink:href="#linearGradient5221-9"
       id="linearGradient5227-5"
       x1="25"
       y1="1"
       x2="25"
       y2="46"
       gradientUnits="userSpaceOnUse"
       gradientTransform="matrix(-0.46370236,0,0,0.34591195,24.404605,9.314662)" />
    <linearGradient
       id="linearGradient5221-9">
      <stop
         style="stop-color:#a3a3a3;stop-opacity:1;"
         offset="0"
         id="stop5223-9" />
      <stop
         style="stop-color:#787878;stop-opacity:1;"
         offset="1"
         id="stop5225-3" />
    </linearGradient>
    <linearGradient
       y2="46"
       x2="25"
       y1="1"
       x1="25"
       gradientUnits="userSpaceOnUse"
       id="linearGradient5244-6-0"
       xlink:href="#linearGradient5221-0-5"
       inkscape:collect="always" />
    <linearGradient
       id="linearGradient5221-0-5">
      <stop
         style="stop-color:#a3a3a3;stop-opacity:1;"
         offset="0"
         id="stop5223-1-3" />
      <stop
         style="stop-color:#787878;stop-opacity:1;"
         offset="1"
         id="stop5225-7-2" />
    </linearGradient>
    <filter
       color-interpolation-filters="sRGB"
       inkscape:collect="always"
       id="filter5322-9">
      <feGaussianBlur
         inkscape:collect="always"
         stdDeviation="0.42189849"
         id="feGaussianBlur5324-3" />
    </filter>
    <linearGradient
       y2="46"
       x2="25"
       y1="1"
       x1="25"
       gradientUnits="userSpaceOnUse"
       id="linearGradient5244-7"
       xlink:href="#linearGradient5221-8-4"
       inkscape:collect="always" />
    <linearGradient
       id="linearGradient5221-8-4">
      <stop
         style="stop-color:#a3a3a3;stop-opacity:1;"
         offset="0"
         id="stop5223-4-8" />
      <stop
         style="stop-color:#787878;stop-opacity:1;"
         offset="1"
         id="stop5225-5-1" />
    </linearGradient>
    <filter
       color-interpolation-filters="sRGB"
       inkscape:collect="always"
       id="filter5296-9"
       x="-0.12765156"
       width="1.2553031"
       y="-0.11321385"
       height="1.2264277">
      <feGaussianBlur
         inkscape:collect="always"
         stdDeviation="2.1094925"
         id="feGaussianBlur5298-6" />
    </filter>
    <linearGradient
       y2="46"
       x2="25"
       y1="1"
       x1="25"
       gradientUnits="userSpaceOnUse"
       id="linearGradient3110"
       xlink:href="#linearGradient5221-8-4"
       inkscape:collect="always" />
  </defs>
  <sodipodi:namedview
     id="base"
     pagecolor="#ffffff"
     bordercolor="#666666"
     borderopacity="1.0"
     inkscape:pageopacity="0.0"
     inkscape:pageshadow="2"
     inkscape:zoom="9.8994949"
     inkscape:cx="20.151758"
     inkscape:cy="23.446367"
     inkscape:current-layer="layer1"
     showgrid="true"
     inkscape:grid-bbox="true"
     inkscape:document-units="px"
     inkscape:window-width="1132"
     inkscape:window-height="755"
     inkscape:window-x="195"
     inkscape:window-y="0"
     inkscape:window-maximized="0">
    <inkscape:grid
       type="xygrid"
       id="grid4680" />
  </sodipodi:namedview>
  <metadata
     id="metadata4665">
    <rdf:RDF>
      <cc:Work
         rdf:about="">
        <dc:format>image/svg+xml</dc:format>
        <dc:type
           rdf:resource="http://purl.org/dc/dcmitype/StillImage" />
        <dc:title></dc:title>
      </cc:Work>
    </rdf:RDF>
  </metadata>
  <g
     inkscape:groupmode="layer"
     id="layer5"
     inkscape:label="glow">
    <path
       inkscape:connector-curvature="0"
       style="font-size:medium;font-style:normal;font-variant:normal;font-weight:normal;font-stretch:normal;text-indent:0;text-align:start;text-decoration:none;line-height:normal;letter-spacing:normal;word-spacing:normal;text-transform:none;direction:ltr;block-progression:tb;writing-mode:lr-tb;text-anchor:start;baseline-shift:baseline;color:#000000;fill:url(#linearGradient5244);fill-opacity:1;stroke:#ffffff;stroke-width:2;stroke-miterlimit:4;stroke-opacity:1;stroke-dasharray:none;marker:none;visibility:visible;display:inline;overflow:visible;filter:url(#filter5296);enable-background:accumulate;font-family:Sans;-inkscape-font-specification:Sans"
       d="m 38.46875,1.53125 -1.25,0.5625 c 6.834232,15.035309 6.834232,28.558441 0,43.59375 l 1.25,0.5625 c 6.964598,-15.322113 6.964598,-29.396637 0,-44.71875 z M 32.90625,7 31.71875,7.6875 c 5.379097,9.413421 5.379097,23.024079 0,32.4375 l 1.1875,0.6875 c 5.659965,-9.904939 5.659965,-23.907562 0,-33.8125 z M 24.71875,8.4375 23.5625,9.625 C 22.223273,10.964228 20.150665,12.649557 18.125,14 16.099335,15.350443 14.034912,16.3125 13,16.3125 l -8.28125,0 -0.6875,0 0,0.6875 0,13.8125 0,0.6875 0.71875,0 c 2.8281312,-0.0789 5.476969,0 8.25,0 1.034912,0 3.099335,0.930807 5.125,2.28125 2.025665,1.350443 4.098273,3.067022 5.4375,4.40625 l 1.15625,1.1875 0,-1.6875 0,-27.59375 0,-1.65625 z M 28.75,12.46875 27.59375,13.25 c 1.183621,1.775431 1.96875,6.242394 1.96875,10.65625 0,4.413856 -0.785129,8.880819 -1.96875,10.65625 l 1.15625,0.75 c 1.576144,-2.364217 2.1875,-6.850868 2.1875,-11.40625 0,-4.555382 -0.611356,-9.073283 -2.1875,-11.4375 z"
       id="path4668-2"
       transform="matrix(0.46370236,0,0,0.34591195,23.971869,9.3573113)" />
  </g>
  <g
     inkscape:groupmode="layer"
     id="layer6"
     inkscape:label="sunken">
    <path
       inkscape:connector-curvature="0"
       style="font-size:medium;font-style:normal;font-variant:normal;font-weight:normal;font-stretch:normal;text-indent:0;text-align:start;text-decoration:none;line-height:normal;letter-spacing:normal;word-spacing:normal;text-transform:none;direction:ltr;block-progression:tb;writing-mode:lr-tb;text-anchor:start;baseline-shift:baseline;color:#000000;fill:url(#linearGradient5244-6);fill-opacity:1;stroke:#000000;stroke-width:1.20000005;stroke-miterlimit:4;stroke-opacity:1;stroke-dasharray:none;marker:none;visibility:visible;display:inline;overflow:visible;filter:url(#filter5322);enable-background:accumulate;font-family:Sans;-inkscape-font-specification:Sans"
       d="m 38.46875,1.53125 -1.25,0.5625 c 6.834232,15.035309 6.834232,28.558441 0,43.59375 l 1.25,0.5625 c 6.964598,-15.322113 6.964598,-29.396637 0,-44.71875 z M 32.90625,7 31.71875,7.6875 c 5.379097,9.413421 5.379097,23.024079 0,32.4375 l 1.1875,0.6875 c 5.659965,-9.904939 5.659965,-23.907562 0,-33.8125 z M 24.71875,8.4375 23.5625,9.625 C 22.223273,10.964228 20.150665,12.649557 18.125,14 16.099335,15.350443 14.034912,16.3125 13,16.3125 l -8.28125,0 -0.6875,0 0,0.6875 0,13.8125 0,0.6875 0.71875,0 c 2.8281312,-0.0789 5.476969,0 8.25,0 1.034912,0 3.099335,0.930807 5.125,2.28125 2.025665,1.350443 4.098273,3.067022 5.4375,4.40625 l 1.15625,1.1875 0,-1.6875 0,-27.59375 0,-1.65625 z M 28.75,12.46875 27.59375,13.25 c 1.183621,1.775431 1.96875,6.242394 1.96875,10.65625 0,4.413856 -0.785129,8.880819 -1.96875,10.65625 l 1.15625,0.75 c 1.576144,-2.364217 2.1875,-6.850868 2.1875,-11.40625 0,-4.555382 -0.611356,-9.073283 -2.1875,-11.4375 z"
       id="path4668-9"
       transform="matrix(0.46370236,0,0,0.34591195,23.971869,9.3573113)" />
    <path
       inkscape:connector-curvature="0"
       style="font-size:medium;font-style:normal;font-variant:normal;font-weight:normal;font-stretch:normal;text-indent:0;text-align:start;text-decoration:none;line-height:normal;letter-spacing:normal;word-spacing:normal;text-transform:none;direction:ltr;block-progression:tb;writing-mode:lr-tb;text-anchor:start;baseline-shift:baseline;color:#000000;fill:url(#linearGradient3110);fill-opacity:1;stroke:#ffffff;stroke-width:2;stroke-miterlimit:4;stroke-opacity:1;stroke-dasharray:none;marker:none;visibility:visible;display:inline;overflow:visible;filter:url(#filter5296-9);enable-background:accumulate;font-family:Sans;-inkscape-font-specification:Sans"
       d="m 38.46875,1.53125 -1.25,0.5625 c 6.834232,15.035309 6.834232,28.558441 0,43.59375 l 1.25,0.5625 c 6.964598,-15.322113 6.964598,-29.396637 0,-44.71875 z M 32.90625,7 31.71875,7.6875 c 5.379097,9.413421 5.379097,23.024079 0,32.4375 l 1.1875,0.6875 c 5.659965,-9.904939 5.659965,-23.907562 0,-33.8125 z M 24.71875,8.4375 23.5625,9.625 C 22.223273,10.964228 20.150665,12.649557 18.125,14 16.099335,15.350443 14.034912,16.3125 13,16.3125 l -8.28125,0 -0.6875,0 0,0.6875 0,13.8125 0,0.6875 0.71875,0 c 2.8281312,-0.0789 5.476969,0 8.25,0 1.034912,0 3.099335,0.930807 5.125,2.28125 2.025665,1.350443 4.098273,3.067022 5.4375,4.40625 l 1.15625,1.1875 0,-1.6875 0,-27.59375 0,-1.65625 z M 28.75,12.46875 27.59375,13.25 c 1.183621,1.775431 1.96875,6.242394 1.96875,10.65625 0,4.413856 -0.785129,8.880819 -1.96875,10.65625 l 1.15625,0.75 c 1.576144,-2.364217 2.1875,-6.850868 2.1875,-11.40625 0,-4.555382 -0.611356,-9.073283 -2.1875,-11.4375 z"
       id="path4668-2-4"
       transform="matrix(-0.46370236,0,0,0.34591195,24.404605,9.314662)" />
    <path
       inkscape:connector-curvature="0"
       style="font-size:medium;font-style:normal;font-variant:normal;font-weight:normal;font-stretch:normal;text-indent:0;text-align:start;text-decoration:none;line-height:normal;letter-spacing:normal;word-spacing:normal;text-transform:none;direction:ltr;block-progression:tb;writing-mode:lr-tb;text-anchor:start;baseline-shift:baseline;color:#000000;fill:url(#linearGradient5244-6-0);fill-opacity:1;stroke:#000000;stroke-width:1.20000005;stroke-miterlimit:4;stroke-opacity:1;stroke-dasharray:none;marker:none;visibility:visible;display:inline;overflow:visible;filter:url(#filter5322-9);enable-background:accumulate;font-family:Sans;-inkscape-font-specification:Sans"
       d="m 38.46875,1.53125 -1.25,0.5625 c 6.834232,15.035309 6.834232,28.558441 0,43.59375 l 1.25,0.5625 c 6.964598,-15.322113 6.964598,-29.396637 0,-44.71875 z M 32.90625,7 31.71875,7.6875 c 5.379097,9.413421 5.379097,23.024079 0,32.4375 l 1.1875,0.6875 c 5.659965,-9.904939 5.659965,-23.907562 0,-33.8125 z M 24.71875,8.4375 23.5625,9.625 C 22.223273,10.964228 20.150665,12.649557 18.125,14 16.099335,15.350443 14.034912,16.3125 13,16.3125 l -8.28125,0 -0.6875,0 0,0.6875 0,13.8125 0,0.6875 0.71875,0 c 2.8281312,-0.0789 5.476969,0 8.25,0 1.034912,0 3.099335,0.930807 5.125,2.28125 2.025665,1.350443 4.098273,3.067022 5.4375,4.40625 l 1.15625,1.1875 0,-1.6875 0,-27.59375 0,-1.65625 z M 28.75,12.46875 27.59375,13.25 c 1.183621,1.775431 1.96875,6.242394 1.96875,10.65625 0,4.413856 -0.785129,8.880819 -1.96875,10.65625 l 1.15625,0.75 c 1.576144,-2.364217 2.1875,-6.850868 2.1875,-11.40625 0,-4.555382 -0.611356,-9.073283 -2.1875,-11.4375 z"
       id="path4668-9-8"
       transform="matrix(-0.46370236,0,0,0.34591195,24.404605,9.314662)" />
    <path
       style="font-size:medium;font-style:normal;font-variant:normal;font-weight:normal;font-stretch:normal;text-indent:0;text-align:start;text-decoration:none;line-height:normal;letter-spacing:normal;word-spacing:normal;text-transform:none;direction:ltr;block-progression:tb;writing-mode:lr-tb;text-anchor:start;baseline-shift:baseline;color:#000000;fill:url(#linearGradient5227-5);fill-opacity:1;stroke:none;stroke-width:1.37988281px;marker:none;visibility:visible;display:inline;overflow:visible;enable-background:accumulate;font-family:Sans;-inkscape-font-specification:Sans"
       d="m 6.566555,9.84434 0.579628,0.194575 c -3.1690497,5.200894 -3.1690497,9.878706 0,15.0796 L 6.566555,25.31309 c -3.2295007,-5.300102 -3.2295007,-10.168648 0,-15.46875 z m 2.579344,1.891706 0.550646,0.237814 c -2.494299,3.256215 -2.494299,7.964304 0,11.220519 l -0.550646,0.237815 c -2.624539,-3.426237 -2.624539,-8.269912 0,-11.696148 z m 3.796562,0.497248 0.536156,0.410771 C 14.09962,13.10732 15.060693,13.690295 16,14.15743 c 0.939305,0.467134 1.896583,0.799921 2.376474,0.799921 l 3.840035,0 0.318796,0 0,0.237814 0,4.777909 0,0.237815 -0.333287,0 c -1.311411,-0.02729 -2.539683,0 -3.825544,0 -0.479891,0 -1.437169,0.321977 -2.376474,0.789111 -0.939307,0.467135 -1.90038,1.06092 -2.521383,1.524175 l -0.536156,0.41077 0,-0.583726 0,-9.545008 0,-0.572917 z m -1.8693,1.394458 0.536157,0.270244 c -0.548848,0.614143 -0.912914,2.159318 -0.912914,3.686124 0,1.526805 0.364065,3.071981 0.912914,3.686124 l -0.536157,0.259434 C 10.3423,20.711867 10.058813,19.159881 10.058813,17.58412 c 0,-1.575761 0.283487,-3.138557 1.014348,-3.956368 z"
       id="path4668-6"
       inkscape:connector-curvature="0" />
  </g>
  <g
     id="layer1"
     inkscape:label="Layer 1"
     inkscape:groupmode="layer">
    <path
       style="font-size:medium;font-style:normal;font-variant:normal;font-weight:normal;font-stretch:normal;text-indent:0;text-align:start;text-decoration:none;line-height:normal;letter-spacing:normal;word-spacing:normal;text-transform:none;direction:ltr;block-progression:tb;writing-mode:lr-tb;text-anchor:start;baseline-shift:baseline;color:#000000;fill:url(#linearGradient5227);fill-opacity:1;stroke:none;stroke-width:1.37988281px;marker:none;visibility:visible;display:inline;overflow:visible;enable-background:accumulate;font-family:Sans;-inkscape-font-specification:Sans"
       d="m 41.809919,9.886989 -0.579628,0.194575 c 3.16905,5.200894 3.16905,9.878706 0,15.0796 l 0.579628,0.194575 c 3.229501,-5.300102 3.229501,-10.168648 0,-15.46875 z m -2.579344,1.891706 -0.550646,0.237814 c 2.494299,3.256215 2.494299,7.964304 0,11.220519 l 0.550646,0.237815 c 2.624539,-3.426237 2.624539,-8.269912 0,-11.696148 z m -3.796562,0.497248 -0.536156,0.410771 c -0.621003,0.463255 -1.582076,1.04623 -2.521383,1.513365 C 31.437169,14.667213 30.479891,15 30,15 l -3.840035,0 -0.318796,0 0,0.237814 0,4.777909 0,0.237815 0.333287,0 c 1.311411,-0.02729 2.539683,0 3.825544,0 0.479891,0 1.437169,0.321977 2.376474,0.789111 0.939307,0.467135 1.90038,1.06092 2.521383,1.524175 l 0.536156,0.41077 0,-0.583726 0,-9.545008 0,-0.572917 z m 1.8693,1.394458 -0.536157,0.270244 c 0.548848,0.614143 0.912914,2.159318 0.912914,3.686124 0,1.526805 -0.364065,3.071981 -0.912914,3.686124 l 0.536157,0.259434 c 0.730861,-0.817811 1.014348,-2.369797 1.014348,-3.945558 0,-1.575761 -0.283487,-3.138557 -1.014348,-3.956368 z"
       id="path4668"
       inkscape:connector-curvature="0" />
  </g>
</svg>
